<?xml version="1.0" encoding="UTF-8" standalone="no"?>
<!DOCTYPE svg PUBLIC "-//W3C//DTD SVG 1.1//EN"
 "http://www.w3.org/Graphics/SVG/1.1/DTD/svg11.dtd">
<!-- Generated by graphviz version 2.36.0 (20140111.2315)
 -->
<!-- Title: controllers_diagram Pages: 1 -->
<svg width="866pt" height="900pt"
 viewBox="0.00 0.00 866.00 900.00" xmlns="http://www.w3.org/2000/svg" xmlns:xlink="http://www.w3.org/1999/xlink">
<g id="graph0" class="graph" transform="scale(1 1) rotate(0) translate(4 896)">
<title>controllers_diagram</title>
<polygon fill="none" stroke="none" points="-4,4 -4,-896 862,-896 862,4 -4,4"/>
<!-- _diagram_info -->
<g id="node1" class="node"><title>_diagram_info</title>
<text text-anchor="start" x="248" y="-575.6" font-family="Times,serif" font-size="13.00">Controllers diagram</text>
<text text-anchor="start" x="248" y="-561.6" font-family="Times,serif" font-size="13.00">Date: Dec 06 2015 &#45; 20:30</text>
<text text-anchor="start" x="248" y="-547.6" font-family="Times,serif" font-size="13.00">Migration version: 20151204221644</text>
<text text-anchor="start" x="248" y="-533.6" font-family="Times,serif" font-size="13.00">Generated by RailRoady 1.4.1</text>
<text text-anchor="start" x="248" y="-519.6" font-family="Times,serif" font-size="13.00">http://railroady.prestonlee.com</text>
</g>
<!-- AccountActivationsController -->
<g id="node2" class="node"><title>AccountActivationsController</title>
<path fill="none" stroke="black" d="M492,-144.5C492,-144.5 648,-144.5 648,-144.5 654,-144.5 660,-150.5 660,-156.5 660,-156.5 660,-225.5 660,-225.5 660,-231.5 654,-237.5 648,-237.5 648,-237.5 492,-237.5 492,-237.5 486,-237.5 480,-231.5 480,-225.5 480,-225.5 480,-156.5 480,-156.5 480,-150.5 486,-144.5 492,-144.5"/>
<text text-anchor="middle" x="570" y="-222.3" font-family="Times,serif" font-size="14.00">AccountActivationsController</text>
<polyline fill="none" stroke="black" points="480,-214.5 660,-214.5 "/>
<text text-anchor="start" x="488" y="-199.3" font-family="Times,serif" font-size="14.00">edit</text>
<polyline fill="none" stroke="black" points="480,-191.5 660,-191.5 "/>
<polyline fill="none" stroke="black" points="480,-167.5 660,-167.5 "/>
<text text-anchor="start" x="488" y="-152.3" font-family="Times,serif" font-size="14.00">_layout</text>
</g>
<!-- UserController -->
<g id="node3" class="node"><title>UserController</title>
<path fill="none" stroke="black" d="M76,-688.5C76,-688.5 150,-688.5 150,-688.5 156,-688.5 162,-694.5 162,-700.5 162,-700.5 162,-814.5 162,-814.5 162,-820.5 156,-826.5 150,-826.5 150,-826.5 76,-826.5 76,-826.5 70,-826.5 64,-820.5 64,-814.5 64,-814.5 64,-700.5 64,-700.5 64,-694.5 70,-688.5 76,-688.5"/>
<text text-anchor="middle" x="113" y="-811.3" font-family="Times,serif" font-size="14.00">UserController</text>
<polyline fill="none" stroke="black" points="64,-803.5 162,-803.5 "/>
<text text-anchor="start" x="72" y="-788.3" font-family="Times,serif" font-size="14.00">create</text>
<text text-anchor="start" x="72" y="-773.3" font-family="Times,serif" font-size="14.00">new</text>
<text text-anchor="start" x="72" y="-758.3" font-family="Times,serif" font-size="14.00">show</text>
<polyline fill="none" stroke="black" points="64,-750.5 162,-750.5 "/>
<polyline fill="none" stroke="black" points="64,-726.5 162,-726.5 "/>
<text text-anchor="start" x="72" y="-711.3" font-family="Times,serif" font-size="14.00">_layout</text>
<text text-anchor="start" x="72" y="-696.3" font-family="Times,serif" font-size="14.00">user_params</text>
</g>
<!-- BitacoraController -->
<g id="node4" class="node"><title>BitacoraController</title>
<path fill="none" stroke="black" d="M124,-352.5C124,-352.5 243,-352.5 243,-352.5 249,-352.5 255,-358.5 255,-364.5 255,-364.5 255,-463.5 255,-463.5 255,-469.5 249,-475.5 243,-475.5 243,-475.5 124,-475.5 124,-475.5 118,-475.5 112,-469.5 112,-463.5 112,-463.5 112,-364.5 112,-364.5 112,-358.5 118,-352.5 124,-352.5"/>
<text text-anchor="middle" x="183.5" y="-460.3" font-family="Times,serif" font-size="14.00">BitacoraController</text>
<polyline fill="none" stroke="black" points="112,-452.5 255,-452.5 "/>
<text text-anchor="start" x="120" y="-437.3" font-family="Times,serif" font-size="14.00">bitacora_administrador</text>
<text text-anchor="start" x="120" y="-422.3" font-family="Times,serif" font-size="14.00">bitacora_usuario</text>
<text text-anchor="start" x="120" y="-407.3" font-family="Times,serif" font-size="14.00">ver_bitacora</text>
<polyline fill="none" stroke="black" points="112,-399.5 255,-399.5 "/>
<polyline fill="none" stroke="black" points="112,-375.5 255,-375.5 "/>
<text text-anchor="start" x="120" y="-360.3" font-family="Times,serif" font-size="14.00">_layout</text>
</g>
<!-- ApplicationController -->
<g id="node5" class="node"><title>ApplicationController</title>
<path fill="none" stroke="black" d="M700,-352.5C700,-352.5 812,-352.5 812,-352.5 818,-352.5 824,-358.5 824,-364.5 824,-364.5 824,-449.5 824,-449.5 824,-455.5 818,-461.5 812,-461.5 812,-461.5 700,-461.5 700,-461.5 694,-461.5 688,-455.5 688,-449.5 688,-449.5 688,-364.5 688,-364.5 688,-358.5 694,-352.5 700,-352.5"/>
<text text-anchor="middle" x="756" y="-446.3" font-family="Times,serif" font-size="14.00">ApplicationController</text>
<polyline fill="none" stroke="black" points="688,-438.5 824,-438.5 "/>
<polyline fill="none" stroke="black" points="688,-414.5 824,-414.5 "/>
<polyline fill="none" stroke="black" points="688,-390.5 824,-390.5 "/>
<text text-anchor="start" x="696" y="-375.3" font-family="Times,serif" font-size="14.00">_layout</text>
<text text-anchor="start" x="696" y="-360.3" font-family="Times,serif" font-size="14.00">current_user</text>
</g>
<!-- AdministrarEntregableController -->
<g id="node6" class="node"><title>AdministrarEntregableController</title>
<path fill="none" stroke="black" d="M604,-608.5C604,-608.5 777,-608.5 777,-608.5 783,-608.5 789,-614.5 789,-620.5 789,-620.5 789,-689.5 789,-689.5 789,-695.5 783,-701.5 777,-701.5 777,-701.5 604,-701.5 604,-701.5 598,-701.5 592,-695.5 592,-689.5 592,-689.5 592,-620.5 592,-620.5 592,-614.5 598,-608.5 604,-608.5"/>
<text text-anchor="middle" x="690.5" y="-686.3" font-family="Times,serif" font-size="14.00">AdministrarEntregableController</text>
<polyline fill="none" stroke="black" points="592,-678.5 789,-678.5 "/>
<text text-anchor="start" x="600" y="-663.3" font-family="Times,serif" font-size="14.00">vistageneral</text>
<polyline fill="none" stroke="black" points="592,-655.5 789,-655.5 "/>
<polyline fill="none" stroke="black" points="592,-631.5 789,-631.5 "/>
<text text-anchor="start" x="600" y="-616.3" font-family="Times,serif" font-size="14.00">_layout</text>
</g>
<!-- ModuloRecursoController -->
<g id="node7" class="node"><title>ModuloRecursoController</title>
<path fill="none" stroke="black" d="M44,-48.5C44,-48.5 180,-48.5 180,-48.5 186,-48.5 192,-54.5 192,-60.5 192,-60.5 192,-129.5 192,-129.5 192,-135.5 186,-141.5 180,-141.5 180,-141.5 44,-141.5 44,-141.5 38,-141.5 32,-135.5 32,-129.5 32,-129.5 32,-60.5 32,-60.5 32,-54.5 38,-48.5 44,-48.5"/>
<text text-anchor="middle" x="112" y="-126.3" font-family="Times,serif" font-size="14.00">ModuloRecursoController</text>
<polyline fill="none" stroke="black" points="32,-118.5 192,-118.5 "/>
<text text-anchor="start" x="40" y="-103.3" font-family="Times,serif" font-size="14.00">view_recurso</text>
<polyline fill="none" stroke="black" points="32,-95.5 192,-95.5 "/>
<polyline fill="none" stroke="black" points="32,-71.5 192,-71.5 "/>
<text text-anchor="start" x="40" y="-56.3" font-family="Times,serif" font-size="14.00">_layout</text>
</g>
<!-- RecursosAsignadosController -->
<g id="node8" class="node"><title>RecursosAsignadosController</title>
<path fill="none" stroke="black" d="M492,-448.5C492,-448.5 647,-448.5 647,-448.5 653,-448.5 659,-454.5 659,-460.5 659,-460.5 659,-559.5 659,-559.5 659,-565.5 653,-571.5 647,-571.5 647,-571.5 492,-571.5 492,-571.5 486,-571.5 480,-565.5 480,-559.5 480,-559.5 480,-460.5 480,-460.5 480,-454.5 486,-448.5 492,-448.5"/>
<text text-anchor="middle" x="569.5" y="-556.3" font-family="Times,serif" font-size="14.00">RecursosAsignadosController</text>
<polyline fill="none" stroke="black" points="480,-548.5 659,-548.5 "/>
<text text-anchor="start" x="488" y="-533.3" font-family="Times,serif" font-size="14.00">administrar</text>
<text text-anchor="start" x="488" y="-518.3" font-family="Times,serif" font-size="14.00">agregarRecursoSeleccionado</text>
<text text-anchor="start" x="488" y="-503.3" font-family="Times,serif" font-size="14.00">removerRecursoSeleccionado</text>
<polyline fill="none" stroke="black" points="480,-495.5 659,-495.5 "/>
<polyline fill="none" stroke="black" points="480,-471.5 659,-471.5 "/>
<text text-anchor="start" x="488" y="-456.3" font-family="Times,serif" font-size="14.00">_layout</text>
</g>
<!-- AlianzaController -->
<g id="node9" class="node"><title>AlianzaController</title>
<path fill="none" stroke="black" d="M156,-176.5C156,-176.5 246,-176.5 246,-176.5 252,-176.5 258,-182.5 258,-188.5 258,-188.5 258,-302.5 258,-302.5 258,-308.5 252,-314.5 246,-314.5 246,-314.5 156,-314.5 156,-314.5 150,-314.5 144,-308.5 144,-302.5 144,-302.5 144,-188.5 144,-188.5 144,-182.5 150,-176.5 156,-176.5"/>
<text text-anchor="middle" x="201" y="-299.3" font-family="Times,serif" font-size="14.00">AlianzaController</text>
<polyline fill="none" stroke="black" points="144,-291.5 258,-291.5 "/>
<text text-anchor="start" x="152" y="-276.3" font-family="Times,serif" font-size="14.00">create</text>
<text text-anchor="start" x="152" y="-261.3" font-family="Times,serif" font-size="14.00">delete</text>
<text text-anchor="start" x="152" y="-246.3" font-family="Times,serif" font-size="14.00">show</text>
<polyline fill="none" stroke="black" points="144,-238.5 258,-238.5 "/>
<polyline fill="none" stroke="black" points="144,-214.5 258,-214.5 "/>
<text text-anchor="start" x="152" y="-199.3" font-family="Times,serif" font-size="14.00">_layout</text>
<text text-anchor="start" x="152" y="-184.3" font-family="Times,serif" font-size="14.00">alianza_params</text>
</g>
<!-- ModuloBitacoraController -->
<g id="node10" class="node"><title>ModuloBitacoraController</title>
<path fill="none" stroke="black" d="M300,-128.5C300,-128.5 437,-128.5 437,-128.5 443,-128.5 449,-134.5 449,-140.5 449,-140.5 449,-209.5 449,-209.5 449,-215.5 443,-221.5 437,-221.5 437,-221.5 300,-221.5 300,-221.5 294,-221.5 288,-215.5 288,-209.5 288,-209.5 288,-140.5 288,-140.5 288,-134.5 294,-128.5 300,-128.5"/>
<text text-anchor="middle" x="368.5" y="-206.3" font-family="Times,serif" font-size="14.00">ModuloBitacoraController</text>
<polyline fill="none" stroke="black" points="288,-198.5 449,-198.5 "/>
<text text-anchor="start" x="296" y="-183.3" font-family="Times,serif" font-size="14.00">view_bitacora</text>
<polyline fill="none" stroke="black" points="288,-175.5 449,-175.5 "/>
<polyline fill="none" stroke="black" points="288,-151.5 449,-151.5 "/>
<text text-anchor="start" x="296" y="-136.3" font-family="Times,serif" font-size="14.00">_layout</text>
</g>
<!-- RiesgoController -->
<g id="node11" class="node"><title>RiesgoController</title>
<path fill="none" stroke="black" d="M60,-512.5C60,-512.5 146,-512.5 146,-512.5 152,-512.5 158,-518.5 158,-524.5 158,-524.5 158,-638.5 158,-638.5 158,-644.5 152,-650.5 146,-650.5 146,-650.5 60,-650.5 60,-650.5 54,-650.5 48,-644.5 48,-638.5 48,-638.5 48,-524.5 48,-524.5 48,-518.5 54,-512.5 60,-512.5"/>
<text text-anchor="middle" x="103" y="-635.3" font-family="Times,serif" font-size="14.00">RiesgoController</text>
<polyline fill="none" stroke="black" points="48,-627.5 158,-627.5 "/>
<text text-anchor="start" x="56" y="-612.3" font-family="Times,serif" font-size="14.00">create</text>
<text text-anchor="start" x="56" y="-597.3" font-family="Times,serif" font-size="14.00">delete</text>
<text text-anchor="start" x="56" y="-582.3" font-family="Times,serif" font-size="14.00">show</text>
<polyline fill="none" stroke="black" points="48,-574.5 158,-574.5 "/>
<polyline fill="none" stroke="black" points="48,-550.5 158,-550.5 "/>
<text text-anchor="start" x="56" y="-535.3" font-family="Times,serif" font-size="14.00">_layout</text>
<text text-anchor="start" x="56" y="-520.3" font-family="Times,serif" font-size="14.00">riesgo_params</text>
</g>
<!-- ModuloPortafolioController -->
<g id="node12" class="node"><title>ModuloPortafolioController</title>
<path fill="none" stroke="black" d="M700,-64.5C700,-64.5 846,-64.5 846,-64.5 852,-64.5 858,-70.5 858,-76.5 858,-76.5 858,-145.5 858,-145.5 858,-151.5 852,-157.5 846,-157.5 846,-157.5 700,-157.5 700,-157.5 694,-157.5 688,-151.5 688,-145.5 688,-145.5 688,-76.5 688,-76.5 688,-70.5 694,-64.5 700,-64.5"/>
<text text-anchor="middle" x="773" y="-142.3" font-family="Times,serif" font-size="14.00">ModuloPortafolioController</text>
<polyline fill="none" stroke="black" points="688,-134.5 858,-134.5 "/>
<text text-anchor="start" x="696" y="-119.3" font-family="Times,serif" font-size="14.00">view_portafolio</text>
<polyline fill="none" stroke="black" points="688,-111.5 858,-111.5 "/>
<polyline fill="none" stroke="black" points="688,-87.5 858,-87.5 "/>
<text text-anchor="start" x="696" y="-72.3" font-family="Times,serif" font-size="14.00">_layout</text>
</g>
<!-- PagesController -->
<g id="node13" class="node"><title>PagesController</title>
<path fill="none" stroke="black" d="M268,-768.5C268,-768.5 348,-768.5 348,-768.5 354,-768.5 360,-774.5 360,-780.5 360,-780.5 360,-879.5 360,-879.5 360,-885.5 354,-891.5 348,-891.5 348,-891.5 268,-891.5 268,-891.5 262,-891.5 256,-885.5 256,-879.5 256,-879.5 256,-780.5 256,-780.5 256,-774.5 262,-768.5 268,-768.5"/>
<text text-anchor="middle" x="308" y="-876.3" font-family="Times,serif" font-size="14.00">PagesController</text>
<polyline fill="none" stroke="black" points="256,-868.5 360,-868.5 "/>
<text text-anchor="start" x="264" y="-853.3" font-family="Times,serif" font-size="14.00">home</text>
<text text-anchor="start" x="264" y="-838.3" font-family="Times,serif" font-size="14.00">logged_in_user</text>
<text text-anchor="start" x="264" y="-823.3" font-family="Times,serif" font-size="14.00">mientras</text>
<polyline fill="none" stroke="black" points="256,-815.5 360,-815.5 "/>
<polyline fill="none" stroke="black" points="256,-791.5 360,-791.5 "/>
<text text-anchor="start" x="264" y="-776.3" font-family="Times,serif" font-size="14.00">_layout</text>
</g>
<!-- ModuloClienteController -->
<g id="node14" class="node"><title>ModuloClienteController</title>
<path fill="none" stroke="black" d="M412,-624.5C412,-624.5 543,-624.5 543,-624.5 549,-624.5 555,-630.5 555,-636.5 555,-636.5 555,-750.5 555,-750.5 555,-756.5 549,-762.5 543,-762.5 543,-762.5 412,-762.5 412,-762.5 406,-762.5 400,-756.5 400,-750.5 400,-750.5 400,-636.5 400,-636.5 400,-630.5 406,-624.5 412,-624.5"/>
<text text-anchor="middle" x="477.5" y="-747.3" font-family="Times,serif" font-size="14.00">ModuloClienteController</text>
<polyline fill="none" stroke="black" points="400,-739.5 555,-739.5 "/>
<text text-anchor="start" x="408" y="-724.3" font-family="Times,serif" font-size="14.00">actualizar_proyectos</text>
<text text-anchor="start" x="408" y="-709.3" font-family="Times,serif" font-size="14.00">lista_clientes</text>
<text text-anchor="start" x="408" y="-694.3" font-family="Times,serif" font-size="14.00">modulo_cliente</text>
<text text-anchor="start" x="408" y="-679.3" font-family="Times,serif" font-size="14.00">nuevo_cliente</text>
<polyline fill="none" stroke="black" points="400,-671.5 555,-671.5 "/>
<polyline fill="none" stroke="black" points="400,-647.5 555,-647.5 "/>
<text text-anchor="start" x="408" y="-632.3" font-family="Times,serif" font-size="14.00">_layout</text>
</g>
<!-- RecursosController -->
<g id="node15" class="node"><title>RecursosController</title>
<path fill="none" stroke="black" d="M732,-736.5C732,-736.5 830,-736.5 830,-736.5 836,-736.5 842,-742.5 842,-748.5 842,-748.5 842,-847.5 842,-847.5 842,-853.5 836,-859.5 830,-859.5 830,-859.5 732,-859.5 732,-859.5 726,-859.5 720,-853.5 720,-847.5 720,-847.5 720,-748.5 720,-748.5 720,-742.5 726,-736.5 732,-736.5"/>
<text text-anchor="middle" x="781" y="-844.3" font-family="Times,serif" font-size="14.00">RecursosController</text>
<polyline fill="none" stroke="black" points="720,-836.5 842,-836.5 "/>
<text text-anchor="start" x="728" y="-821.3" font-family="Times,serif" font-size="14.00">agregar_recurso</text>
<text text-anchor="start" x="728" y="-806.3" font-family="Times,serif" font-size="14.00">lista_recursos</text>
<text text-anchor="start" x="728" y="-791.3" font-family="Times,serif" font-size="14.00">opciones_recurso</text>
<polyline fill="none" stroke="black" points="720,-783.5 842,-783.5 "/>
<polyline fill="none" stroke="black" points="720,-759.5 842,-759.5 "/>
<text text-anchor="start" x="728" y="-744.3" font-family="Times,serif" font-size="14.00">_layout</text>
</g>
<!-- PasswordResetsController -->
<g id="node16" class="node"><title>PasswordResetsController</title>
<path fill="none" stroke="black" d="M300,-256.5C300,-256.5 435,-256.5 435,-256.5 441,-256.5 447,-262.5 447,-268.5 447,-268.5 447,-472.5 447,-472.5 447,-478.5 441,-484.5 435,-484.5 435,-484.5 300,-484.5 300,-484.5 294,-484.5 288,-478.5 288,-472.5 288,-472.5 288,-268.5 288,-268.5 288,-262.5 294,-256.5 300,-256.5"/>
<text text-anchor="middle" x="367.5" y="-469.3" font-family="Times,serif" font-size="14.00">PasswordResetsController</text>
<polyline fill="none" stroke="black" points="288,-461.5 447,-461.5 "/>
<text text-anchor="start" x="296" y="-446.3" font-family="Times,serif" font-size="14.00">create</text>
<text text-anchor="start" x="296" y="-431.3" font-family="Times,serif" font-size="14.00">edit</text>
<text text-anchor="start" x="296" y="-416.3" font-family="Times,serif" font-size="14.00">new</text>
<text text-anchor="start" x="296" y="-401.3" font-family="Times,serif" font-size="14.00">password_reset_expired?</text>
<text text-anchor="start" x="296" y="-386.3" font-family="Times,serif" font-size="14.00">update</text>
<polyline fill="none" stroke="black" points="288,-378.5 447,-378.5 "/>
<polyline fill="none" stroke="black" points="288,-354.5 447,-354.5 "/>
<text text-anchor="start" x="296" y="-339.3" font-family="Times,serif" font-size="14.00">_layout</text>
<text text-anchor="start" x="296" y="-324.3" font-family="Times,serif" font-size="14.00">check_expiration</text>
<text text-anchor="start" x="296" y="-309.3" font-family="Times,serif" font-size="14.00">get_user</text>
<text text-anchor="start" x="296" y="-294.3" font-family="Times,serif" font-size="14.00">persona_params</text>
<text text-anchor="start" x="296" y="-279.3" font-family="Times,serif" font-size="14.00">user_params</text>
<text text-anchor="start" x="296" y="-264.3" font-family="Times,serif" font-size="14.00">valid_user</text>
</g>
<!-- SessionsController -->
<g id="node17" class="node"><title>SessionsController</title>
<path fill="none" stroke="black" d="M12,-192.5C12,-192.5 107,-192.5 107,-192.5 113,-192.5 119,-198.5 119,-204.5 119,-204.5 119,-303.5 119,-303.5 119,-309.5 113,-315.5 107,-315.5 107,-315.5 12,-315.5 12,-315.5 6,-315.5 -5.68434e-14,-309.5 -5.68434e-14,-303.5 -5.68434e-14,-303.5 -5.68434e-14,-204.5 -5.68434e-14,-204.5 -5.68434e-14,-198.5 6,-192.5 12,-192.5"/>
<text text-anchor="middle" x="59.5" y="-300.3" font-family="Times,serif" font-size="14.00">SessionsController</text>
<polyline fill="none" stroke="black" points="-5.68434e-14,-292.5 119,-292.5 "/>
<text text-anchor="start" x="8" y="-277.3" font-family="Times,serif" font-size="14.00">create</text>
<text text-anchor="start" x="8" y="-262.3" font-family="Times,serif" font-size="14.00">destroy</text>
<text text-anchor="start" x="8" y="-247.3" font-family="Times,serif" font-size="14.00">new</text>
<polyline fill="none" stroke="black" points="-5.68434e-14,-239.5 119,-239.5 "/>
<polyline fill="none" stroke="black" points="-5.68434e-14,-215.5 119,-215.5 "/>
<text text-anchor="start" x="8" y="-200.3" font-family="Times,serif" font-size="14.00">_layout</text>
</g>
<!-- DocumentoController -->
<g id="node18" class="node"><title>DocumentoController</title>
<path fill="none" stroke="black" d="M492,-272.5C492,-272.5 648,-272.5 648,-272.5 654,-272.5 660,-278.5 660,-284.5 660,-284.5 660,-398.5 660,-398.5 660,-404.5 654,-410.5 648,-410.5 648,-410.5 492,-410.5 492,-410.5 486,-410.5 480,-404.5 480,-398.5 480,-398.5 480,-284.5 480,-284.5 480,-278.5 486,-272.5 492,-272.5"/>
<text text-anchor="middle" x="570" y="-395.3" font-family="Times,serif" font-size="14.00">DocumentoController</text>
<polyline fill="none" stroke="black" points="480,-387.5 660,-387.5 "/>
<text text-anchor="start" x="488" y="-372.3" font-family="Times,serif" font-size="14.00">borrarEntregableSeleccionado</text>
<text text-anchor="start" x="488" y="-357.3" font-family="Times,serif" font-size="14.00">entregableSeleccionado</text>
<text text-anchor="start" x="488" y="-342.3" font-family="Times,serif" font-size="14.00">nuevoEntregable</text>
<text text-anchor="start" x="488" y="-327.3" font-family="Times,serif" font-size="14.00">show</text>
<polyline fill="none" stroke="black" points="480,-319.5 660,-319.5 "/>
<polyline fill="none" stroke="black" points="480,-295.5 660,-295.5 "/>
<text text-anchor="start" x="488" y="-280.3" font-family="Times,serif" font-size="14.00">_layout</text>
</g>
<!-- NewClientController -->
<g id="node19" class="node"><title>NewClientController</title>
<path fill="none" stroke="black" d="M700,-192.5C700,-192.5 807,-192.5 807,-192.5 813,-192.5 819,-198.5 819,-204.5 819,-204.5 819,-303.5 819,-303.5 819,-309.5 813,-315.5 807,-315.5 807,-315.5 700,-315.5 700,-315.5 694,-315.5 688,-309.5 688,-303.5 688,-303.5 688,-204.5 688,-204.5 688,-198.5 694,-192.5 700,-192.5"/>
<text text-anchor="middle" x="753.5" y="-300.3" font-family="Times,serif" font-size="14.00">NewClientController</text>
<polyline fill="none" stroke="black" points="688,-292.5 819,-292.5 "/>
<text text-anchor="start" x="696" y="-277.3" font-family="Times,serif" font-size="14.00">create</text>
<text text-anchor="start" x="696" y="-262.3" font-family="Times,serif" font-size="14.00">logged_in_user</text>
<text text-anchor="start" x="696" y="-247.3" font-family="Times,serif" font-size="14.00">new</text>
<polyline fill="none" stroke="black" points="688,-239.5 819,-239.5 "/>
<polyline fill="none" stroke="black" points="688,-215.5 819,-215.5 "/>
<text text-anchor="start" x="696" y="-200.3" font-family="Times,serif" font-size="14.00">_layout</text>
</g>
<!-- ModuloEntregableController -->
<g id="node20" class="node"><title>ModuloEntregableController</title>
<path fill="none" stroke="black" d="M204,-624.5C204,-624.5 354,-624.5 354,-624.5 360,-624.5 366,-630.5 366,-636.5 366,-636.5 366,-720.5 366,-720.5 366,-726.5 360,-732.5 354,-732.5 354,-732.5 204,-732.5 204,-732.5 198,-732.5 192,-726.5 192,-720.5 192,-720.5 192,-636.5 192,-636.5 192,-630.5 198,-624.5 204,-624.5"/>
<text text-anchor="middle" x="279" y="-717.3" font-family="Times,serif" font-size="14.00">ModuloEntregableController</text>
<polyline fill="none" stroke="black" points="192,-709.5 366,-709.5 "/>
<text text-anchor="start" x="200" y="-694.3" font-family="Times,serif" font-size="14.00">agregar_entrega</text>
<text text-anchor="start" x="200" y="-679.3" font-family="Times,serif" font-size="14.00">view_entregable</text>
<polyline fill="none" stroke="black" points="192,-671.5 366,-671.5 "/>
<polyline fill="none" stroke="black" points="192,-647.5 366,-647.5 "/>
<text text-anchor="start" x="200" y="-632.3" font-family="Times,serif" font-size="14.00">_layout</text>
</g>
<!-- SignupController -->
<g id="node21" class="node"><title>SignupController</title>
<path fill="none" stroke="black" d="M492,-0.5C492,-0.5 578,-0.5 578,-0.5 584,-0.5 590,-6.5 590,-12.5 590,-12.5 590,-96.5 590,-96.5 590,-102.5 584,-108.5 578,-108.5 578,-108.5 492,-108.5 492,-108.5 486,-108.5 480,-102.5 480,-96.5 480,-96.5 480,-12.5 480,-12.5 480,-6.5 486,-0.5 492,-0.5"/>
<text text-anchor="middle" x="535" y="-93.3" font-family="Times,serif" font-size="14.00">SignupController</text>
<polyline fill="none" stroke="black" points="480,-85.5 590,-85.5 "/>
<text text-anchor="start" x="488" y="-70.3" font-family="Times,serif" font-size="14.00">create</text>
<text text-anchor="start" x="488" y="-55.3" font-family="Times,serif" font-size="14.00">new</text>
<polyline fill="none" stroke="black" points="480,-47.5 590,-47.5 "/>
<polyline fill="none" stroke="black" points="480,-23.5 590,-23.5 "/>
<text text-anchor="start" x="488" y="-8.3" font-family="Times,serif" font-size="14.00">_layout</text>
</g>
</g>
</svg>
