<?xml version="1.0" encoding="UTF-8" standalone="no"?>
<!DOCTYPE svg PUBLIC "-//W3C//DTD SVG 1.1//EN"
 "http://www.w3.org/Graphics/SVG/1.1/DTD/svg11.dtd">
<!-- Generated by graphviz version 2.36.0 (20140111.2315)
 -->
<!-- Title: models_diagram Pages: 1 -->
<svg width="1060pt" height="1648pt"
 viewBox="0.00 0.00 1060.45 1648.00" xmlns="http://www.w3.org/2000/svg" xmlns:xlink="http://www.w3.org/1999/xlink">
<g id="graph0" class="graph" transform="scale(1 1) rotate(0) translate(4 1644)">
<title>models_diagram</title>
<polygon fill="none" stroke="none" points="-4,4 -4,-1644 1056.45,-1644 1056.45,4 -4,4"/>
<!-- _diagram_info -->
<g id="node1" class="node"><title>_diagram_info</title>
<text text-anchor="start" x="120" y="-1603.6" font-family="Times,serif" font-size="13.00">Models diagram</text>
<text text-anchor="start" x="120" y="-1589.6" font-family="Times,serif" font-size="13.00">Date: Dec 06 2015 &#45; 20:44</text>
<text text-anchor="start" x="120" y="-1575.6" font-family="Times,serif" font-size="13.00">Migration version: 20151204221644</text>
<text text-anchor="start" x="120" y="-1561.6" font-family="Times,serif" font-size="13.00">Generated by RailRoady 1.4.1</text>
<text text-anchor="start" x="120" y="-1547.6" font-family="Times,serif" font-size="13.00">http://railroady.prestonlee.com</text>
</g>
<!-- Direccion -->
<g id="node2" class="node"><title>Direccion</title>
<path fill="none" stroke="black" d="M11.5,-1186C11.5,-1186 118.5,-1186 118.5,-1186 124.5,-1186 130.5,-1192 130.5,-1198 130.5,-1198 130.5,-1340 130.5,-1340 130.5,-1346 124.5,-1352 118.5,-1352 118.5,-1352 11.5,-1352 11.5,-1352 5.5,-1352 -0.5,-1346 -0.5,-1340 -0.5,-1340 -0.5,-1198 -0.5,-1198 -0.5,-1192 5.5,-1186 11.5,-1186"/>
<text text-anchor="middle" x="65" y="-1336.8" font-family="Times,serif" font-size="14.00">Direccion</text>
<polyline fill="none" stroke="black" points="-0.5,-1329 130.5,-1329 "/>
<text text-anchor="start" x="7.5" y="-1313.8" font-family="Times,serif" font-size="14.00">id :INTEGER</text>
<text text-anchor="start" x="7.5" y="-1298.8" font-family="Times,serif" font-size="14.00">tipo :varchar</text>
<text text-anchor="start" x="7.5" y="-1283.8" font-family="Times,serif" font-size="14.00">pais :varchar</text>
<text text-anchor="start" x="7.5" y="-1268.8" font-family="Times,serif" font-size="14.00">provincia :varchar</text>
<text text-anchor="start" x="7.5" y="-1253.8" font-family="Times,serif" font-size="14.00">ciudad :varchar</text>
<text text-anchor="start" x="7.5" y="-1238.8" font-family="Times,serif" font-size="14.00">dirExac :varchar</text>
<text text-anchor="start" x="7.5" y="-1223.8" font-family="Times,serif" font-size="14.00">persona_id :integer</text>
<text text-anchor="start" x="7.5" y="-1208.8" font-family="Times,serif" font-size="14.00">created_at :datetime</text>
<text text-anchor="start" x="7.5" y="-1193.8" font-family="Times,serif" font-size="14.00">updated_at :datetime</text>
</g>
<!-- Portafolio -->
<g id="node3" class="node"><title>Portafolio</title>
<path fill="none" stroke="black" d="M519.5,-747C519.5,-747 626.5,-747 626.5,-747 632.5,-747 638.5,-753 638.5,-759 638.5,-759 638.5,-841 638.5,-841 638.5,-847 632.5,-853 626.5,-853 626.5,-853 519.5,-853 519.5,-853 513.5,-853 507.5,-847 507.5,-841 507.5,-841 507.5,-759 507.5,-759 507.5,-753 513.5,-747 519.5,-747"/>
<text text-anchor="middle" x="573" y="-837.8" font-family="Times,serif" font-size="14.00">Portafolio</text>
<polyline fill="none" stroke="black" points="507.5,-830 638.5,-830 "/>
<text text-anchor="start" x="515.5" y="-814.8" font-family="Times,serif" font-size="14.00">id :INTEGER</text>
<text text-anchor="start" x="515.5" y="-799.8" font-family="Times,serif" font-size="14.00">fechaCreac :date</text>
<text text-anchor="start" x="515.5" y="-784.8" font-family="Times,serif" font-size="14.00">cliente_id :integer</text>
<text text-anchor="start" x="515.5" y="-769.8" font-family="Times,serif" font-size="14.00">created_at :datetime</text>
<text text-anchor="start" x="515.5" y="-754.8" font-family="Times,serif" font-size="14.00">updated_at :datetime</text>
</g>
<!-- Hoja -->
<g id="node11" class="node"><title>Hoja</title>
<path fill="none" stroke="black" d="M768,-586.5C768,-586.5 876,-586.5 876,-586.5 882,-586.5 888,-592.5 888,-598.5 888,-598.5 888,-695.5 888,-695.5 888,-701.5 882,-707.5 876,-707.5 876,-707.5 768,-707.5 768,-707.5 762,-707.5 756,-701.5 756,-695.5 756,-695.5 756,-598.5 756,-598.5 756,-592.5 762,-586.5 768,-586.5"/>
<text text-anchor="middle" x="822" y="-692.3" font-family="Times,serif" font-size="14.00">Hoja</text>
<polyline fill="none" stroke="black" points="756,-684.5 888,-684.5 "/>
<text text-anchor="start" x="764" y="-669.3" font-family="Times,serif" font-size="14.00">id :INTEGER</text>
<text text-anchor="start" x="764" y="-654.3" font-family="Times,serif" font-size="14.00">tiempoDef :varchar</text>
<text text-anchor="start" x="764" y="-639.3" font-family="Times,serif" font-size="14.00">razonDeSer :varchar</text>
<text text-anchor="start" x="764" y="-624.3" font-family="Times,serif" font-size="14.00">portafolio_id :integer</text>
<text text-anchor="start" x="764" y="-609.3" font-family="Times,serif" font-size="14.00">created_at :datetime</text>
<text text-anchor="start" x="764" y="-594.3" font-family="Times,serif" font-size="14.00">updated_at :datetime</text>
</g>
<!-- Portafolio&#45;&gt;Hoja -->
<g id="edge1" class="edge"><title>Portafolio&#45;&gt;Hoja</title>
<path fill="none" stroke="#195927" d="M645.625,-754.958C677.478,-735.642 714.848,-712.979 746.971,-693.499"/>
<ellipse fill="none" stroke="#195927" cx="642.168" cy="-757.055" rx="4.00002" ry="4.00002"/>
<polygon fill="#195927" stroke="#195927" points="747.333,-693.28 758.217,-691.942 751.608,-690.687 755.884,-688.095 755.884,-688.095 755.884,-688.095 751.608,-690.687 753.55,-684.247 747.333,-693.28 747.333,-693.28"/>
</g>
<!-- Bitacora -->
<g id="node4" class="node"><title>Bitacora</title>
<path fill="none" stroke="black" d="M577.5,-1C577.5,-1 688.5,-1 688.5,-1 694.5,-1 700.5,-7 700.5,-13 700.5,-13 700.5,-125 700.5,-125 700.5,-131 694.5,-137 688.5,-137 688.5,-137 577.5,-137 577.5,-137 571.5,-137 565.5,-131 565.5,-125 565.5,-125 565.5,-13 565.5,-13 565.5,-7 571.5,-1 577.5,-1"/>
<text text-anchor="middle" x="633" y="-121.8" font-family="Times,serif" font-size="14.00">Bitacora</text>
<polyline fill="none" stroke="black" points="565.5,-114 700.5,-114 "/>
<text text-anchor="start" x="573.5" y="-98.8" font-family="Times,serif" font-size="14.00">id :INTEGER</text>
<text text-anchor="start" x="573.5" y="-83.8" font-family="Times,serif" font-size="14.00">created_at :datetime</text>
<text text-anchor="start" x="573.5" y="-68.8" font-family="Times,serif" font-size="14.00">updated_at :datetime</text>
<text text-anchor="start" x="573.5" y="-53.8" font-family="Times,serif" font-size="14.00">entregable_id :integer</text>
<text text-anchor="start" x="573.5" y="-38.8" font-family="Times,serif" font-size="14.00">recurso_id :integer</text>
<text text-anchor="start" x="573.5" y="-23.8" font-family="Times,serif" font-size="14.00">descripcion :varchar</text>
<text text-anchor="start" x="573.5" y="-8.8" font-family="Times,serif" font-size="14.00">fecha :date</text>
</g>
<!-- Documento -->
<g id="node5" class="node"><title>Documento</title>
<path fill="none" stroke="black" d="M743.5,-176.5C743.5,-176.5 850.5,-176.5 850.5,-176.5 856.5,-176.5 862.5,-182.5 862.5,-188.5 862.5,-188.5 862.5,-345.5 862.5,-345.5 862.5,-351.5 856.5,-357.5 850.5,-357.5 850.5,-357.5 743.5,-357.5 743.5,-357.5 737.5,-357.5 731.5,-351.5 731.5,-345.5 731.5,-345.5 731.5,-188.5 731.5,-188.5 731.5,-182.5 737.5,-176.5 743.5,-176.5"/>
<text text-anchor="middle" x="797" y="-342.3" font-family="Times,serif" font-size="14.00">Documento</text>
<polyline fill="none" stroke="black" points="731.5,-334.5 862.5,-334.5 "/>
<text text-anchor="start" x="739.5" y="-319.3" font-family="Times,serif" font-size="14.00">id :INTEGER</text>
<text text-anchor="start" x="739.5" y="-304.3" font-family="Times,serif" font-size="14.00">titulo :varchar</text>
<text text-anchor="start" x="739.5" y="-289.3" font-family="Times,serif" font-size="14.00">razon :varchar</text>
<text text-anchor="start" x="739.5" y="-274.3" font-family="Times,serif" font-size="14.00">tiempo :varchar</text>
<text text-anchor="start" x="739.5" y="-259.3" font-family="Times,serif" font-size="14.00">precio :float</text>
<text text-anchor="start" x="739.5" y="-244.3" font-family="Times,serif" font-size="14.00">costo :float</text>
<text text-anchor="start" x="739.5" y="-229.3" font-family="Times,serif" font-size="14.00">estado :varchar</text>
<text text-anchor="start" x="739.5" y="-214.3" font-family="Times,serif" font-size="14.00">proyecto_id :integer</text>
<text text-anchor="start" x="739.5" y="-199.3" font-family="Times,serif" font-size="14.00">created_at :datetime</text>
<text text-anchor="start" x="739.5" y="-184.3" font-family="Times,serif" font-size="14.00">updated_at :datetime</text>
</g>
<!-- Juridica -->
<g id="node6" class="node"><title>Juridica</title>
<path fill="none" stroke="black" d="M160.5,-1208.5C160.5,-1208.5 267.5,-1208.5 267.5,-1208.5 273.5,-1208.5 279.5,-1214.5 279.5,-1220.5 279.5,-1220.5 279.5,-1317.5 279.5,-1317.5 279.5,-1323.5 273.5,-1329.5 267.5,-1329.5 267.5,-1329.5 160.5,-1329.5 160.5,-1329.5 154.5,-1329.5 148.5,-1323.5 148.5,-1317.5 148.5,-1317.5 148.5,-1220.5 148.5,-1220.5 148.5,-1214.5 154.5,-1208.5 160.5,-1208.5"/>
<text text-anchor="middle" x="214" y="-1314.3" font-family="Times,serif" font-size="14.00">Juridica</text>
<polyline fill="none" stroke="black" points="148.5,-1306.5 279.5,-1306.5 "/>
<text text-anchor="start" x="156.5" y="-1291.3" font-family="Times,serif" font-size="14.00">id :INTEGER</text>
<text text-anchor="start" x="156.5" y="-1276.3" font-family="Times,serif" font-size="14.00">razonSocial :varchar</text>
<text text-anchor="start" x="156.5" y="-1261.3" font-family="Times,serif" font-size="14.00">fechaCreac :date</text>
<text text-anchor="start" x="156.5" y="-1246.3" font-family="Times,serif" font-size="14.00">persona_id :integer</text>
<text text-anchor="start" x="156.5" y="-1231.3" font-family="Times,serif" font-size="14.00">created_at :datetime</text>
<text text-anchor="start" x="156.5" y="-1216.3" font-family="Times,serif" font-size="14.00">updated_at :datetime</text>
</g>
<!-- Telefono -->
<g id="node7" class="node"><title>Telefono</title>
<path fill="none" stroke="black" d="M309.5,-1208.5C309.5,-1208.5 416.5,-1208.5 416.5,-1208.5 422.5,-1208.5 428.5,-1214.5 428.5,-1220.5 428.5,-1220.5 428.5,-1317.5 428.5,-1317.5 428.5,-1323.5 422.5,-1329.5 416.5,-1329.5 416.5,-1329.5 309.5,-1329.5 309.5,-1329.5 303.5,-1329.5 297.5,-1323.5 297.5,-1317.5 297.5,-1317.5 297.5,-1220.5 297.5,-1220.5 297.5,-1214.5 303.5,-1208.5 309.5,-1208.5"/>
<text text-anchor="middle" x="363" y="-1314.3" font-family="Times,serif" font-size="14.00">Telefono</text>
<polyline fill="none" stroke="black" points="297.5,-1306.5 428.5,-1306.5 "/>
<text text-anchor="start" x="305.5" y="-1291.3" font-family="Times,serif" font-size="14.00">id :INTEGER</text>
<text text-anchor="start" x="305.5" y="-1276.3" font-family="Times,serif" font-size="14.00">tipo :varchar</text>
<text text-anchor="start" x="305.5" y="-1261.3" font-family="Times,serif" font-size="14.00">numero :integer</text>
<text text-anchor="start" x="305.5" y="-1246.3" font-family="Times,serif" font-size="14.00">persona_id :integer</text>
<text text-anchor="start" x="305.5" y="-1231.3" font-family="Times,serif" font-size="14.00">created_at :datetime</text>
<text text-anchor="start" x="305.5" y="-1216.3" font-family="Times,serif" font-size="14.00">updated_at :datetime</text>
</g>
<!-- Persona -->
<g id="node8" class="node"><title>Persona</title>
<path fill="none" stroke="black" d="M356.5,-1518.5C356.5,-1518.5 463.5,-1518.5 463.5,-1518.5 469.5,-1518.5 475.5,-1524.5 475.5,-1530.5 475.5,-1530.5 475.5,-1627.5 475.5,-1627.5 475.5,-1633.5 469.5,-1639.5 463.5,-1639.5 463.5,-1639.5 356.5,-1639.5 356.5,-1639.5 350.5,-1639.5 344.5,-1633.5 344.5,-1627.5 344.5,-1627.5 344.5,-1530.5 344.5,-1530.5 344.5,-1524.5 350.5,-1518.5 356.5,-1518.5"/>
<text text-anchor="middle" x="410" y="-1624.3" font-family="Times,serif" font-size="14.00">Persona</text>
<polyline fill="none" stroke="black" points="344.5,-1616.5 475.5,-1616.5 "/>
<text text-anchor="start" x="352.5" y="-1601.3" font-family="Times,serif" font-size="14.00">id :INTEGER</text>
<text text-anchor="start" x="352.5" y="-1586.3" font-family="Times,serif" font-size="14.00">idPersona :varchar</text>
<text text-anchor="start" x="352.5" y="-1571.3" font-family="Times,serif" font-size="14.00">email :varchar</text>
<text text-anchor="start" x="352.5" y="-1556.3" font-family="Times,serif" font-size="14.00">tipoPersona :varchar</text>
<text text-anchor="start" x="352.5" y="-1541.3" font-family="Times,serif" font-size="14.00">created_at :datetime</text>
<text text-anchor="start" x="352.5" y="-1526.3" font-family="Times,serif" font-size="14.00">updated_at :datetime</text>
</g>
<!-- Persona&#45;&gt;Direccion -->
<g id="edge4" class="edge"><title>Persona&#45;&gt;Direccion</title>
<path fill="none" stroke="#791d7d" d="M337.288,-1519.57C336.194,-1519.03 335.098,-1518.5 334,-1518 253.755,-1481.16 205.832,-1537.7 139,-1480 104.667,-1450.36 86.2608,-1403.77 76.3942,-1361.99"/>
<ellipse fill="none" stroke="#791d7d" cx="340.929" cy="-1521.5" rx="4.00002" ry="4.00002"/>
<polygon fill="#791d7d" stroke="#791d7d" points="76.3539,-1361.81 78.5746,-1351.07 75.268,-1356.93 74.182,-1352.05 74.182,-1352.05 74.182,-1352.05 75.268,-1356.93 69.7894,-1353.03 76.3539,-1361.81 76.3539,-1361.81"/>
</g>
<!-- Persona&#45;&gt;Juridica -->
<g id="edge2" class="edge"><title>Persona&#45;&gt;Juridica</title>
<path fill="none" stroke="#c416e2" d="M338.033,-1520.83C312.21,-1500.2 289.091,-1481.54 288,-1480 257.81,-1437.39 238.876,-1381.27 227.725,-1337.77"/>
<ellipse fill="none" stroke="#c416e2" cx="341.16" cy="-1523.32" rx="4.00002" ry="4.00002"/>
<ellipse fill="#c416e2" stroke="#c416e2" cx="226.703" cy="-1333.68" rx="4.00001" ry="4.00001"/>
</g>
<!-- Persona&#45;&gt;Telefono -->
<g id="edge5" class="edge"><title>Persona&#45;&gt;Telefono</title>
<path fill="none" stroke="#cad76a" d="M399.639,-1510.1C391.914,-1459.48 381.396,-1390.55 373.611,-1339.54"/>
<ellipse fill="none" stroke="#cad76a" cx="400.279" cy="-1514.3" rx="4.00001" ry="4.00001"/>
<polygon fill="#cad76a" stroke="#cad76a" points="373.601,-1339.47 376.541,-1328.91 372.847,-1334.53 372.092,-1329.58 372.092,-1329.58 372.092,-1329.58 372.847,-1334.53 367.644,-1330.26 373.601,-1339.47 373.601,-1339.47"/>
</g>
<!-- Fisica -->
<g id="node12" class="node"><title>Fisica</title>
<path fill="none" stroke="black" d="M376.5,-873C376.5,-873 483.5,-873 483.5,-873 489.5,-873 495.5,-879 495.5,-885 495.5,-885 495.5,-1027 495.5,-1027 495.5,-1033 489.5,-1039 483.5,-1039 483.5,-1039 376.5,-1039 376.5,-1039 370.5,-1039 364.5,-1033 364.5,-1027 364.5,-1027 364.5,-885 364.5,-885 364.5,-879 370.5,-873 376.5,-873"/>
<text text-anchor="middle" x="430" y="-1023.8" font-family="Times,serif" font-size="14.00">Fisica</text>
<polyline fill="none" stroke="black" points="364.5,-1016 495.5,-1016 "/>
<text text-anchor="start" x="372.5" y="-1000.8" font-family="Times,serif" font-size="14.00">id :INTEGER</text>
<text text-anchor="start" x="372.5" y="-985.8" font-family="Times,serif" font-size="14.00">nombre :varchar</text>
<text text-anchor="start" x="372.5" y="-970.8" font-family="Times,serif" font-size="14.00">apellido1 :varchar</text>
<text text-anchor="start" x="372.5" y="-955.8" font-family="Times,serif" font-size="14.00">apellido2 :varchar</text>
<text text-anchor="start" x="372.5" y="-940.8" font-family="Times,serif" font-size="14.00">sexo :varchar</text>
<text text-anchor="start" x="372.5" y="-925.8" font-family="Times,serif" font-size="14.00">fechaNac :date</text>
<text text-anchor="start" x="372.5" y="-910.8" font-family="Times,serif" font-size="14.00">persona_id :integer</text>
<text text-anchor="start" x="372.5" y="-895.8" font-family="Times,serif" font-size="14.00">created_at :datetime</text>
<text text-anchor="start" x="372.5" y="-880.8" font-family="Times,serif" font-size="14.00">updated_at :datetime</text>
</g>
<!-- Persona&#45;&gt;Fisica -->
<g id="edge3" class="edge"><title>Persona&#45;&gt;Fisica</title>
<path fill="none" stroke="#ee4853" d="M431.161,-1510.38C433.579,-1500.29 435.656,-1489.94 437,-1480 457.37,-1329.37 448.109,-1152.12 439.257,-1047.46"/>
<ellipse fill="none" stroke="#ee4853" cx="430.125" cy="-1514.53" rx="4.00001" ry="4.00001"/>
<ellipse fill="#ee4853" stroke="#ee4853" cx="438.909" cy="-1043.42" rx="4" ry="4"/>
</g>
<!-- User -->
<g id="node17" class="node"><title>User</title>
<path fill="none" stroke="black" d="M648.5,-1058.5C648.5,-1058.5 791.5,-1058.5 791.5,-1058.5 797.5,-1058.5 803.5,-1064.5 803.5,-1070.5 803.5,-1070.5 803.5,-1467.5 803.5,-1467.5 803.5,-1473.5 797.5,-1479.5 791.5,-1479.5 791.5,-1479.5 648.5,-1479.5 648.5,-1479.5 642.5,-1479.5 636.5,-1473.5 636.5,-1467.5 636.5,-1467.5 636.5,-1070.5 636.5,-1070.5 636.5,-1064.5 642.5,-1058.5 648.5,-1058.5"/>
<text text-anchor="middle" x="720" y="-1464.3" font-family="Times,serif" font-size="14.00">User</text>
<polyline fill="none" stroke="black" points="636.5,-1456.5 803.5,-1456.5 "/>
<text text-anchor="start" x="644.5" y="-1441.3" font-family="Times,serif" font-size="14.00">id :INTEGER</text>
<text text-anchor="start" x="644.5" y="-1426.3" font-family="Times,serif" font-size="14.00">usuario :varchar</text>
<text text-anchor="start" x="644.5" y="-1411.3" font-family="Times,serif" font-size="14.00">remember_session :varchar</text>
<text text-anchor="start" x="644.5" y="-1396.3" font-family="Times,serif" font-size="14.00">estado :boolean</text>
<text text-anchor="start" x="644.5" y="-1381.3" font-family="Times,serif" font-size="14.00">IdTipo :varchar</text>
<text text-anchor="start" x="644.5" y="-1366.3" font-family="Times,serif" font-size="14.00">IdPersona :varchar</text>
<text text-anchor="start" x="644.5" y="-1351.3" font-family="Times,serif" font-size="14.00">created_at :datetime</text>
<text text-anchor="start" x="644.5" y="-1336.3" font-family="Times,serif" font-size="14.00">updated_at :datetime</text>
<text text-anchor="start" x="644.5" y="-1321.3" font-family="Times,serif" font-size="14.00">password_digest :varchar</text>
<text text-anchor="start" x="644.5" y="-1306.3" font-family="Times,serif" font-size="14.00">oauth_token :varchar</text>
<text text-anchor="start" x="644.5" y="-1291.3" font-family="Times,serif" font-size="14.00">oauth_expires_at :datetime</text>
<text text-anchor="start" x="644.5" y="-1276.3" font-family="Times,serif" font-size="14.00">password :varchar</text>
<text text-anchor="start" x="644.5" y="-1261.3" font-family="Times,serif" font-size="14.00">provider :varchar</text>
<text text-anchor="start" x="644.5" y="-1246.3" font-family="Times,serif" font-size="14.00">uid :varchar</text>
<text text-anchor="start" x="644.5" y="-1231.3" font-family="Times,serif" font-size="14.00">remember_digest :varchar</text>
<text text-anchor="start" x="644.5" y="-1216.3" font-family="Times,serif" font-size="14.00">persona_id :integer</text>
<text text-anchor="start" x="644.5" y="-1201.3" font-family="Times,serif" font-size="14.00">activation_digest :varchar</text>
<text text-anchor="start" x="644.5" y="-1186.3" font-family="Times,serif" font-size="14.00">activated :boolean</text>
<text text-anchor="start" x="644.5" y="-1171.3" font-family="Times,serif" font-size="14.00">activated_at :datetime</text>
<text text-anchor="start" x="644.5" y="-1156.3" font-family="Times,serif" font-size="14.00">reset_digest :varchar</text>
<text text-anchor="start" x="644.5" y="-1141.3" font-family="Times,serif" font-size="14.00">reset_sent_at :datetime</text>
<text text-anchor="start" x="644.5" y="-1126.3" font-family="Times,serif" font-size="14.00">foto_file_name :varchar</text>
<text text-anchor="start" x="644.5" y="-1111.3" font-family="Times,serif" font-size="14.00">foto_content_type :varchar</text>
<text text-anchor="start" x="644.5" y="-1096.3" font-family="Times,serif" font-size="14.00">foto_file_size :integer</text>
<text text-anchor="start" x="644.5" y="-1081.3" font-family="Times,serif" font-size="14.00">foto_updated_at :datetime</text>
<text text-anchor="start" x="644.5" y="-1066.3" font-family="Times,serif" font-size="14.00">tipo_usuario :varchar</text>
</g>
<!-- Persona&#45;&gt;User -->
<g id="edge7" class="edge"><title>Persona&#45;&gt;User</title>
<path fill="none" stroke="#66001d" d="M483.559,-1559.46C529.741,-1544.58 587.769,-1519.52 627,-1480 628.312,-1478.68 629.608,-1477.33 630.887,-1475.97"/>
<ellipse fill="none" stroke="#66001d" cx="479.485" cy="-1560.74" rx="4.00001" ry="4.00001"/>
<ellipse fill="#66001d" stroke="#66001d" cx="633.71" cy="-1472.83" rx="4.00002" ry="4.00002"/>
</g>
<!-- Cliente -->
<g id="node19" class="node"><title>Cliente</title>
<path fill="none" stroke="black" d="M497.5,-1216C497.5,-1216 606.5,-1216 606.5,-1216 612.5,-1216 618.5,-1222 618.5,-1228 618.5,-1228 618.5,-1310 618.5,-1310 618.5,-1316 612.5,-1322 606.5,-1322 606.5,-1322 497.5,-1322 497.5,-1322 491.5,-1322 485.5,-1316 485.5,-1310 485.5,-1310 485.5,-1228 485.5,-1228 485.5,-1222 491.5,-1216 497.5,-1216"/>
<text text-anchor="middle" x="552" y="-1306.8" font-family="Times,serif" font-size="14.00">Cliente</text>
<polyline fill="none" stroke="black" points="485.5,-1299 618.5,-1299 "/>
<text text-anchor="start" x="493.5" y="-1283.8" font-family="Times,serif" font-size="14.00">id :INTEGER</text>
<text text-anchor="start" x="493.5" y="-1268.8" font-family="Times,serif" font-size="14.00">nombreEmp :varchar</text>
<text text-anchor="start" x="493.5" y="-1253.8" font-family="Times,serif" font-size="14.00">persona_id :integer</text>
<text text-anchor="start" x="493.5" y="-1238.8" font-family="Times,serif" font-size="14.00">created_at :datetime</text>
<text text-anchor="start" x="493.5" y="-1223.8" font-family="Times,serif" font-size="14.00">updated_at :datetime</text>
</g>
<!-- Persona&#45;&gt;Cliente -->
<g id="edge6" class="edge"><title>Persona&#45;&gt;Cliente</title>
<path fill="none" stroke="#091f75" d="M464.147,-1511.57C466.58,-1507.74 468.884,-1503.86 471,-1500 500.863,-1445.49 523.116,-1377.85 536.664,-1330.07"/>
<ellipse fill="none" stroke="#091f75" cx="461.836" cy="-1515.1" rx="4.00002" ry="4.00002"/>
<ellipse fill="#091f75" stroke="#091f75" cx="537.767" cy="-1326.13" rx="4.00001" ry="4.00001"/>
</g>
<!-- Certificacion -->
<g id="node9" class="node"><title>Certificacion</title>
<path fill="none" stroke="black" d="M298.5,-419C298.5,-419 405.5,-419 405.5,-419 411.5,-419 417.5,-425 417.5,-431 417.5,-431 417.5,-513 417.5,-513 417.5,-519 411.5,-525 405.5,-525 405.5,-525 298.5,-525 298.5,-525 292.5,-525 286.5,-519 286.5,-513 286.5,-513 286.5,-431 286.5,-431 286.5,-425 292.5,-419 298.5,-419"/>
<text text-anchor="middle" x="352" y="-509.8" font-family="Times,serif" font-size="14.00">Certificacion</text>
<polyline fill="none" stroke="black" points="286.5,-502 417.5,-502 "/>
<text text-anchor="start" x="294.5" y="-486.8" font-family="Times,serif" font-size="14.00">id :INTEGER</text>
<text text-anchor="start" x="294.5" y="-471.8" font-family="Times,serif" font-size="14.00">descripcion :varchar</text>
<text text-anchor="start" x="294.5" y="-456.8" font-family="Times,serif" font-size="14.00">recurso_id :integer</text>
<text text-anchor="start" x="294.5" y="-441.8" font-family="Times,serif" font-size="14.00">created_at :datetime</text>
<text text-anchor="start" x="294.5" y="-426.8" font-family="Times,serif" font-size="14.00">updated_at :datetime</text>
</g>
<!-- Material -->
<g id="node10" class="node"><title>Material</title>
<path fill="none" stroke="black" d="M892.5,-191.5C892.5,-191.5 999.5,-191.5 999.5,-191.5 1005.5,-191.5 1011.5,-197.5 1011.5,-203.5 1011.5,-203.5 1011.5,-330.5 1011.5,-330.5 1011.5,-336.5 1005.5,-342.5 999.5,-342.5 999.5,-342.5 892.5,-342.5 892.5,-342.5 886.5,-342.5 880.5,-336.5 880.5,-330.5 880.5,-330.5 880.5,-203.5 880.5,-203.5 880.5,-197.5 886.5,-191.5 892.5,-191.5"/>
<text text-anchor="middle" x="946" y="-327.3" font-family="Times,serif" font-size="14.00">Material</text>
<polyline fill="none" stroke="black" points="880.5,-319.5 1011.5,-319.5 "/>
<text text-anchor="start" x="888.5" y="-304.3" font-family="Times,serif" font-size="14.00">id :INTEGER</text>
<text text-anchor="start" x="888.5" y="-289.3" font-family="Times,serif" font-size="14.00">tipo :varchar</text>
<text text-anchor="start" x="888.5" y="-274.3" font-family="Times,serif" font-size="14.00">descripcion :varchar</text>
<text text-anchor="start" x="888.5" y="-259.3" font-family="Times,serif" font-size="14.00">uso :varchar</text>
<text text-anchor="start" x="888.5" y="-244.3" font-family="Times,serif" font-size="14.00">fechaFin :date</text>
<text text-anchor="start" x="888.5" y="-229.3" font-family="Times,serif" font-size="14.00">proyecto_id :integer</text>
<text text-anchor="start" x="888.5" y="-214.3" font-family="Times,serif" font-size="14.00">created_at :datetime</text>
<text text-anchor="start" x="888.5" y="-199.3" font-family="Times,serif" font-size="14.00">updated_at :datetime</text>
</g>
<!-- Proyecto -->
<g id="node22" class="node"><title>Proyecto</title>
<path fill="none" stroke="black" d="M635.5,-396.5C635.5,-396.5 742.5,-396.5 742.5,-396.5 748.5,-396.5 754.5,-402.5 754.5,-408.5 754.5,-408.5 754.5,-535.5 754.5,-535.5 754.5,-541.5 748.5,-547.5 742.5,-547.5 742.5,-547.5 635.5,-547.5 635.5,-547.5 629.5,-547.5 623.5,-541.5 623.5,-535.5 623.5,-535.5 623.5,-408.5 623.5,-408.5 623.5,-402.5 629.5,-396.5 635.5,-396.5"/>
<text text-anchor="middle" x="689" y="-532.3" font-family="Times,serif" font-size="14.00">Proyecto</text>
<polyline fill="none" stroke="black" points="623.5,-524.5 754.5,-524.5 "/>
<text text-anchor="start" x="631.5" y="-509.3" font-family="Times,serif" font-size="14.00">id :INTEGER</text>
<text text-anchor="start" x="631.5" y="-494.3" font-family="Times,serif" font-size="14.00">nombre :varchar</text>
<text text-anchor="start" x="631.5" y="-479.3" font-family="Times,serif" font-size="14.00">presupuesto :float</text>
<text text-anchor="start" x="631.5" y="-464.3" font-family="Times,serif" font-size="14.00">precio :float</text>
<text text-anchor="start" x="631.5" y="-449.3" font-family="Times,serif" font-size="14.00">estado :varchar</text>
<text text-anchor="start" x="631.5" y="-434.3" font-family="Times,serif" font-size="14.00">hoja_id :integer</text>
<text text-anchor="start" x="631.5" y="-419.3" font-family="Times,serif" font-size="14.00">created_at :datetime</text>
<text text-anchor="start" x="631.5" y="-404.3" font-family="Times,serif" font-size="14.00">updated_at :datetime</text>
</g>
<!-- Hoja&#45;&gt;Proyecto -->
<g id="edge8" class="edge"><title>Hoja&#45;&gt;Proyecto</title>
<path fill="none" stroke="#249556" d="M771.217,-579.944C764.742,-571.522 758.057,-562.826 751.425,-554.2"/>
<ellipse fill="none" stroke="#249556" cx="773.791" cy="-583.292" rx="4.00002" ry="4.00002"/>
<ellipse fill="#249556" stroke="#249556" cx="748.807" cy="-550.794" rx="4.00002" ry="4.00002"/>
</g>
<!-- Recurso -->
<g id="node14" class="node"><title>Recurso</title>
<path fill="none" stroke="black" d="M372.5,-586.5C372.5,-586.5 479.5,-586.5 479.5,-586.5 485.5,-586.5 491.5,-592.5 491.5,-598.5 491.5,-598.5 491.5,-695.5 491.5,-695.5 491.5,-701.5 485.5,-707.5 479.5,-707.5 479.5,-707.5 372.5,-707.5 372.5,-707.5 366.5,-707.5 360.5,-701.5 360.5,-695.5 360.5,-695.5 360.5,-598.5 360.5,-598.5 360.5,-592.5 366.5,-586.5 372.5,-586.5"/>
<text text-anchor="middle" x="426" y="-692.3" font-family="Times,serif" font-size="14.00">Recurso</text>
<polyline fill="none" stroke="black" points="360.5,-684.5 491.5,-684.5 "/>
<text text-anchor="start" x="368.5" y="-669.3" font-family="Times,serif" font-size="14.00">id :INTEGER</text>
<text text-anchor="start" x="368.5" y="-654.3" font-family="Times,serif" font-size="14.00">almaMater :varchar</text>
<text text-anchor="start" x="368.5" y="-639.3" font-family="Times,serif" font-size="14.00">fisica_id :integer</text>
<text text-anchor="start" x="368.5" y="-624.3" font-family="Times,serif" font-size="14.00">created_at :datetime</text>
<text text-anchor="start" x="368.5" y="-609.3" font-family="Times,serif" font-size="14.00">updated_at :datetime</text>
<text text-anchor="start" x="368.5" y="-594.3" font-family="Times,serif" font-size="14.00">estado :boolean</text>
</g>
<!-- Fisica&#45;&gt;Recurso -->
<g id="edge9" class="edge"><title>Fisica&#45;&gt;Recurso</title>
<path fill="none" stroke="#c63dd3" d="M428.823,-864.697C428.202,-816.997 427.452,-759.432 426.881,-715.625"/>
<ellipse fill="none" stroke="#c63dd3" cx="428.876" cy="-868.73" rx="4" ry="4"/>
<ellipse fill="#c63dd3" stroke="#c63dd3" cx="426.829" cy="-711.61" rx="4" ry="4"/>
</g>
<!-- Alianza -->
<g id="node13" class="node"><title>Alianza</title>
<path fill="none" stroke="black" d="M443.5,-191.5C443.5,-191.5 552.5,-191.5 552.5,-191.5 558.5,-191.5 564.5,-197.5 564.5,-203.5 564.5,-203.5 564.5,-330.5 564.5,-330.5 564.5,-336.5 558.5,-342.5 552.5,-342.5 552.5,-342.5 443.5,-342.5 443.5,-342.5 437.5,-342.5 431.5,-336.5 431.5,-330.5 431.5,-330.5 431.5,-203.5 431.5,-203.5 431.5,-197.5 437.5,-191.5 443.5,-191.5"/>
<text text-anchor="middle" x="498" y="-327.3" font-family="Times,serif" font-size="14.00">Alianza</text>
<polyline fill="none" stroke="black" points="431.5,-319.5 564.5,-319.5 "/>
<text text-anchor="start" x="439.5" y="-304.3" font-family="Times,serif" font-size="14.00">id :INTEGER</text>
<text text-anchor="start" x="439.5" y="-289.3" font-family="Times,serif" font-size="14.00">tipo :varchar</text>
<text text-anchor="start" x="439.5" y="-274.3" font-family="Times,serif" font-size="14.00">nombreEmp :varchar</text>
<text text-anchor="start" x="439.5" y="-259.3" font-family="Times,serif" font-size="14.00">proposito :varchar</text>
<text text-anchor="start" x="439.5" y="-244.3" font-family="Times,serif" font-size="14.00">fechaFin :date</text>
<text text-anchor="start" x="439.5" y="-229.3" font-family="Times,serif" font-size="14.00">proyecto_id :integer</text>
<text text-anchor="start" x="439.5" y="-214.3" font-family="Times,serif" font-size="14.00">created_at :datetime</text>
<text text-anchor="start" x="439.5" y="-199.3" font-family="Times,serif" font-size="14.00">updated_at :datetime</text>
</g>
<!-- Recurso&#45;&gt;Bitacora -->
<g id="edge16" class="edge"><title>Recurso&#45;&gt;Bitacora</title>
<path fill="none" stroke="#4ec047" d="M499.609,-637.929C635.46,-618.433 920.764,-554.776 1020,-358 1056.42,-285.776 1069.06,-240.31 1020,-176 982.686,-127.091 812.653,-95.2137 710.792,-80.1473"/>
<ellipse fill="none" stroke="#4ec047" cx="495.632" cy="-638.487" rx="4.00001" ry="4.00001"/>
<polygon fill="#4ec047" stroke="#4ec047" points="710.746,-80.1407 701.499,-74.2452 705.798,-79.4194 700.85,-78.6981 700.85,-78.6981 700.85,-78.6981 705.798,-79.4194 700.201,-83.151 710.746,-80.1407 710.746,-80.1407"/>
</g>
<!-- Recurso&#45;&gt;Certificacion -->
<g id="edge10" class="edge"><title>Recurso&#45;&gt;Certificacion</title>
<path fill="none" stroke="#137e1d" d="M397.297,-578.896C391.035,-564.258 384.44,-548.838 378.278,-534.434"/>
<ellipse fill="none" stroke="#137e1d" cx="398.96" cy="-582.786" rx="4.00002" ry="4.00002"/>
<polygon fill="#137e1d" stroke="#137e1d" points="378.232,-534.327 378.437,-523.363 376.266,-529.73 374.3,-525.133 374.3,-525.133 374.3,-525.133 376.266,-529.73 370.162,-526.903 378.232,-534.327 378.232,-534.327"/>
</g>
<!-- Rol -->
<g id="node15" class="node"><title>Rol</title>
<path fill="none" stroke="black" d="M294.5,-206.5C294.5,-206.5 401.5,-206.5 401.5,-206.5 407.5,-206.5 413.5,-212.5 413.5,-218.5 413.5,-218.5 413.5,-315.5 413.5,-315.5 413.5,-321.5 407.5,-327.5 401.5,-327.5 401.5,-327.5 294.5,-327.5 294.5,-327.5 288.5,-327.5 282.5,-321.5 282.5,-315.5 282.5,-315.5 282.5,-218.5 282.5,-218.5 282.5,-212.5 288.5,-206.5 294.5,-206.5"/>
<text text-anchor="middle" x="348" y="-312.3" font-family="Times,serif" font-size="14.00">Rol</text>
<polyline fill="none" stroke="black" points="282.5,-304.5 413.5,-304.5 "/>
<text text-anchor="start" x="290.5" y="-289.3" font-family="Times,serif" font-size="14.00">id :INTEGER</text>
<text text-anchor="start" x="290.5" y="-274.3" font-family="Times,serif" font-size="14.00">created_at :datetime</text>
<text text-anchor="start" x="290.5" y="-259.3" font-family="Times,serif" font-size="14.00">updated_at :datetime</text>
<text text-anchor="start" x="290.5" y="-244.3" font-family="Times,serif" font-size="14.00">proyecto_id :integer</text>
<text text-anchor="start" x="290.5" y="-229.3" font-family="Times,serif" font-size="14.00">recurso_id :integer</text>
<text text-anchor="start" x="290.5" y="-214.3" font-family="Times,serif" font-size="14.00">papel :varchar</text>
</g>
<!-- Recurso&#45;&gt;Rol -->
<g id="edge12" class="edge"><title>Recurso&#45;&gt;Rol</title>
<path fill="none" stroke="#62558d" d="M499.128,-616.642C528.213,-600.913 558.609,-578.399 575,-548 607.062,-488.537 616.615,-449.216 575,-396 531.838,-340.807 481.25,-395.399 422,-358 412.111,-351.758 402.914,-343.745 394.602,-335.08"/>
<ellipse fill="none" stroke="#62558d" cx="495.315" cy="-618.639" rx="4.00002" ry="4.00002"/>
<polygon fill="#62558d" stroke="#62558d" points="394.578,-335.054 391.153,-324.636 391.204,-331.363 387.831,-327.672 387.831,-327.672 387.831,-327.672 391.204,-331.363 384.509,-330.708 394.578,-335.054 394.578,-335.054"/>
</g>
<!-- Activo -->
<g id="node16" class="node"><title>Activo</title>
<path fill="none" stroke="black" d="M17.5,-8.5C17.5,-8.5 128.5,-8.5 128.5,-8.5 134.5,-8.5 140.5,-14.5 140.5,-20.5 140.5,-20.5 140.5,-117.5 140.5,-117.5 140.5,-123.5 134.5,-129.5 128.5,-129.5 128.5,-129.5 17.5,-129.5 17.5,-129.5 11.5,-129.5 5.5,-123.5 5.5,-117.5 5.5,-117.5 5.5,-20.5 5.5,-20.5 5.5,-14.5 11.5,-8.5 17.5,-8.5"/>
<text text-anchor="middle" x="73" y="-114.3" font-family="Times,serif" font-size="14.00">Activo</text>
<polyline fill="none" stroke="black" points="5.5,-106.5 140.5,-106.5 "/>
<text text-anchor="start" x="13.5" y="-91.3" font-family="Times,serif" font-size="14.00">id :INTEGER</text>
<text text-anchor="start" x="13.5" y="-76.3" font-family="Times,serif" font-size="14.00">created_at :datetime</text>
<text text-anchor="start" x="13.5" y="-61.3" font-family="Times,serif" font-size="14.00">updated_at :datetime</text>
<text text-anchor="start" x="13.5" y="-46.3" font-family="Times,serif" font-size="14.00">entregable_id :integer</text>
<text text-anchor="start" x="13.5" y="-31.3" font-family="Times,serif" font-size="14.00">recurso_id :integer</text>
<text text-anchor="start" x="13.5" y="-16.3" font-family="Times,serif" font-size="14.00">estado :boolean</text>
</g>
<!-- Recurso&#45;&gt;Activo -->
<g id="edge14" class="edge"><title>Recurso&#45;&gt;Activo</title>
<path fill="none" stroke="#06a3f7" d="M352.288,-637.895C255.739,-625.412 95.3519,-597.571 67,-548 -6.5968,-419.322 25.4268,-237.511 51.5121,-139.352"/>
<ellipse fill="none" stroke="#06a3f7" cx="356.307" cy="-638.407" rx="4.00001" ry="4.00001"/>
<polygon fill="#06a3f7" stroke="#06a3f7" points="51.5556,-139.191 58.5171,-130.718 52.8649,-134.366 54.1741,-129.54 54.1741,-129.54 54.1741,-129.54 52.8649,-134.366 49.8311,-128.362 51.5556,-139.191 51.5556,-139.191"/>
</g>
<!-- Habilidad -->
<g id="node20" class="node"><title>Habilidad</title>
<path fill="none" stroke="black" d="M447.5,-419C447.5,-419 554.5,-419 554.5,-419 560.5,-419 566.5,-425 566.5,-431 566.5,-431 566.5,-513 566.5,-513 566.5,-519 560.5,-525 554.5,-525 554.5,-525 447.5,-525 447.5,-525 441.5,-525 435.5,-519 435.5,-513 435.5,-513 435.5,-431 435.5,-431 435.5,-425 441.5,-419 447.5,-419"/>
<text text-anchor="middle" x="501" y="-509.8" font-family="Times,serif" font-size="14.00">Habilidad</text>
<polyline fill="none" stroke="black" points="435.5,-502 566.5,-502 "/>
<text text-anchor="start" x="443.5" y="-486.8" font-family="Times,serif" font-size="14.00">id :INTEGER</text>
<text text-anchor="start" x="443.5" y="-471.8" font-family="Times,serif" font-size="14.00">descripcion :varchar</text>
<text text-anchor="start" x="443.5" y="-456.8" font-family="Times,serif" font-size="14.00">recurso_id :integer</text>
<text text-anchor="start" x="443.5" y="-441.8" font-family="Times,serif" font-size="14.00">created_at :datetime</text>
<text text-anchor="start" x="443.5" y="-426.8" font-family="Times,serif" font-size="14.00">updated_at :datetime</text>
</g>
<!-- Recurso&#45;&gt;Habilidad -->
<g id="edge11" class="edge"><title>Recurso&#45;&gt;Habilidad</title>
<path fill="none" stroke="#f44cfe" d="M455.091,-578.896C461.437,-564.258 468.122,-548.838 474.367,-534.434"/>
<ellipse fill="none" stroke="#f44cfe" cx="453.402" cy="-582.793" rx="4.00002" ry="4.00002"/>
<polygon fill="#f44cfe" stroke="#f44cfe" points="474.421,-534.308 482.528,-526.923 476.41,-529.72 478.399,-525.133 478.399,-525.133 478.399,-525.133 476.41,-529.72 474.27,-523.343 474.421,-534.308 474.421,-534.308"/>
</g>
<!-- Entregable -->
<g id="node21" class="node"><title>Entregable</title>
<path fill="none" stroke="black" d="M104.5,-184C104.5,-184 211.5,-184 211.5,-184 217.5,-184 223.5,-190 223.5,-196 223.5,-196 223.5,-338 223.5,-338 223.5,-344 217.5,-350 211.5,-350 211.5,-350 104.5,-350 104.5,-350 98.5,-350 92.5,-344 92.5,-338 92.5,-338 92.5,-196 92.5,-196 92.5,-190 98.5,-184 104.5,-184"/>
<text text-anchor="middle" x="158" y="-334.8" font-family="Times,serif" font-size="14.00">Entregable</text>
<polyline fill="none" stroke="black" points="92.5,-327 223.5,-327 "/>
<text text-anchor="start" x="100.5" y="-311.8" font-family="Times,serif" font-size="14.00">id :INTEGER</text>
<text text-anchor="start" x="100.5" y="-296.8" font-family="Times,serif" font-size="14.00">numero :integer</text>
<text text-anchor="start" x="100.5" y="-281.8" font-family="Times,serif" font-size="14.00">fechaEnt :date</text>
<text text-anchor="start" x="100.5" y="-266.8" font-family="Times,serif" font-size="14.00">descripcion :varchar</text>
<text text-anchor="start" x="100.5" y="-251.8" font-family="Times,serif" font-size="14.00">proyecto_id :integer</text>
<text text-anchor="start" x="100.5" y="-236.8" font-family="Times,serif" font-size="14.00">created_at :datetime</text>
<text text-anchor="start" x="100.5" y="-221.8" font-family="Times,serif" font-size="14.00">updated_at :datetime</text>
<text text-anchor="start" x="100.5" y="-206.8" font-family="Times,serif" font-size="14.00">entrega :varchar</text>
<text text-anchor="start" x="100.5" y="-191.8" font-family="Times,serif" font-size="14.00">entregado :boolean</text>
</g>
<!-- Recurso&#45;&gt;Entregable -->
<g id="edge15" class="edge"><title>Recurso&#45;&gt;Entregable</title>
<path fill="none" stroke="#ceb667" d="M350.362,-635.748C267.427,-623.132 141.277,-599.455 105,-568 46.8707,-517.597 71.9172,-427.608 104.382,-359.296"/>
<polygon fill="#ceb667" stroke="#ceb667" points="350.364,-635.749 359.586,-641.682 355.309,-636.49 360.253,-637.232 360.253,-637.232 360.253,-637.232 355.309,-636.49 360.921,-632.782 350.364,-635.749 350.364,-635.749"/>
<polygon fill="#ceb667" stroke="#ceb667" points="104.417,-359.223 112.839,-352.2 106.605,-354.727 108.793,-350.231 108.793,-350.231 108.793,-350.231 106.605,-354.727 104.746,-348.262 104.417,-359.223 104.417,-359.223"/>
</g>
<!-- Recurso&#45;&gt;Entregable -->
<g id="edge17" class="edge"><title>Recurso&#45;&gt;Entregable</title>
<path fill="none" stroke="#d60b64" d="M350.232,-644.003C280.992,-637.659 182.138,-616.249 133,-548 94.3047,-494.255 103.655,-418.816 120.989,-359.782"/>
<polygon fill="#d60b64" stroke="#d60b64" points="350.257,-644.006 359.85,-649.318 355.24,-644.42 360.223,-644.834 360.223,-644.834 360.223,-644.834 355.24,-644.42 360.596,-640.349 350.257,-644.006 350.257,-644.006"/>
<polygon fill="#d60b64" stroke="#d60b64" points="121.031,-359.646 128.255,-351.396 122.491,-354.864 123.952,-350.082 123.952,-350.082 123.952,-350.082 122.491,-354.864 119.648,-348.767 121.031,-359.646 121.031,-359.646"/>
<text text-anchor="middle" x="162" y="-468.3" font-family="Times,serif" font-size="14.00">reportados</text>
</g>
<!-- Recurso&#45;&gt;Proyecto -->
<g id="edge13" class="edge"><title>Recurso&#45;&gt;Proyecto</title>
<path fill="none" stroke="#c13013" d="M501.355,-622.937C536.139,-610.101 576.769,-591.843 609,-568 614.474,-563.951 619.815,-559.455 624.972,-554.684"/>
<polygon fill="#c13013" stroke="#c13013" points="501.118,-623.022 490.185,-622.18 496.415,-624.718 491.711,-626.413 491.711,-626.413 491.711,-626.413 496.415,-624.718 493.237,-630.647 501.118,-623.022 501.118,-623.022"/>
<polygon fill="#c13013" stroke="#c13013" points="625.198,-554.466 635.517,-550.755 628.794,-550.992 632.39,-547.518 632.39,-547.518 632.39,-547.518 628.794,-550.992 629.264,-544.282 625.198,-554.466 625.198,-554.466"/>
</g>
<!-- Riesgo -->
<g id="node18" class="node"><title>Riesgo</title>
<path fill="none" stroke="black" d="M594.5,-206.5C594.5,-206.5 701.5,-206.5 701.5,-206.5 707.5,-206.5 713.5,-212.5 713.5,-218.5 713.5,-218.5 713.5,-315.5 713.5,-315.5 713.5,-321.5 707.5,-327.5 701.5,-327.5 701.5,-327.5 594.5,-327.5 594.5,-327.5 588.5,-327.5 582.5,-321.5 582.5,-315.5 582.5,-315.5 582.5,-218.5 582.5,-218.5 582.5,-212.5 588.5,-206.5 594.5,-206.5"/>
<text text-anchor="middle" x="648" y="-312.3" font-family="Times,serif" font-size="14.00">Riesgo</text>
<polyline fill="none" stroke="black" points="582.5,-304.5 713.5,-304.5 "/>
<text text-anchor="start" x="590.5" y="-289.3" font-family="Times,serif" font-size="14.00">id :INTEGER</text>
<text text-anchor="start" x="590.5" y="-274.3" font-family="Times,serif" font-size="14.00">tipo :varchar</text>
<text text-anchor="start" x="590.5" y="-259.3" font-family="Times,serif" font-size="14.00">descripcion :varchar</text>
<text text-anchor="start" x="590.5" y="-244.3" font-family="Times,serif" font-size="14.00">proyecto_id :integer</text>
<text text-anchor="start" x="590.5" y="-229.3" font-family="Times,serif" font-size="14.00">created_at :datetime</text>
<text text-anchor="start" x="590.5" y="-214.3" font-family="Times,serif" font-size="14.00">updated_at :datetime</text>
</g>
<!-- Cliente&#45;&gt;Portafolio -->
<g id="edge18" class="edge"><title>Cliente&#45;&gt;Portafolio</title>
<path fill="none" stroke="#f33c4a" d="M554.714,-1207.66C558.741,-1118.1 566.256,-950.974 570.284,-861.391"/>
<ellipse fill="none" stroke="#f33c4a" cx="554.528" cy="-1211.79" rx="4" ry="4"/>
<ellipse fill="#f33c4a" stroke="#f33c4a" cx="570.471" cy="-857.228" rx="4" ry="4"/>
</g>
<!-- Entregable&#45;&gt;Bitacora -->
<g id="edge20" class="edge"><title>Entregable&#45;&gt;Bitacora</title>
<path fill="none" stroke="#e2930e" d="M230.127,-202.997C243.773,-193.018 258.373,-183.526 273,-176 364.623,-128.858 480.432,-99.508 555.578,-83.9585"/>
<ellipse fill="none" stroke="#e2930e" cx="226.716" cy="-205.538" rx="4.00002" ry="4.00002"/>
<polygon fill="#e2930e" stroke="#e2930e" points="555.649,-83.9441 566.347,-86.3566 560.549,-82.9456 565.448,-81.9472 565.448,-81.9472 565.448,-81.9472 560.549,-82.9456 564.549,-77.5378 555.649,-83.9441 555.649,-83.9441"/>
</g>
<!-- Entregable&#45;&gt;Recurso -->
<g id="edge21" class="edge"><title>Entregable&#45;&gt;Recurso</title>
<path fill="none" stroke="#b73128" d="M182.366,-360.183C185.368,-372.209 188.32,-384.383 191,-396 206.5,-463.181 179.615,-493.621 222,-548 253.663,-588.623 306.389,-613.34 350.304,-627.788"/>
<polygon fill="#b73128" stroke="#b73128" points="182.277,-359.829 184.201,-349.033 181.057,-354.98 179.837,-350.131 179.837,-350.131 179.837,-350.131 181.057,-354.98 175.473,-351.229 182.277,-359.829 182.277,-359.829"/>
<polygon fill="#b73128" stroke="#b73128" points="350.571,-627.872 358.745,-635.182 355.337,-629.382 360.104,-630.892 360.104,-630.892 360.104,-630.892 355.337,-629.382 361.463,-626.602 350.571,-627.872 350.571,-627.872"/>
<text text-anchor="middle" x="249.5" y="-468.3" font-family="Times,serif" font-size="14.00">reporteros</text>
</g>
<!-- Entregable&#45;&gt;Activo -->
<g id="edge19" class="edge"><title>Entregable&#45;&gt;Activo</title>
<path fill="none" stroke="#e46ece" d="M118.99,-176.048C113.614,-163.652 108.164,-151.083 102.985,-139.142"/>
<ellipse fill="none" stroke="#e46ece" cx="120.73" cy="-180.061" rx="4.00002" ry="4.00002"/>
<polygon fill="#e46ece" stroke="#e46ece" points="102.876,-138.89 103.026,-127.925 100.886,-134.303 98.8971,-129.716 98.8971,-129.716 98.8971,-129.716 100.886,-134.303 94.7686,-131.506 102.876,-138.89 102.876,-138.89"/>
</g>
<!-- Proyecto&#45;&gt;Documento -->
<g id="edge27" class="edge"><title>Proyecto&#45;&gt;Documento</title>
<path fill="none" stroke="#7cba23" d="M732.54,-389.16C736.757,-381.235 741.061,-373.144 745.346,-365.09"/>
<ellipse fill="none" stroke="#7cba23" cx="730.634" cy="-392.744" rx="4.00002" ry="4.00002"/>
<ellipse fill="#7cba23" stroke="#7cba23" cx="747.394" cy="-361.241" rx="4.00002" ry="4.00002"/>
</g>
<!-- Proyecto&#45;&gt;Material -->
<g id="edge23" class="edge"><title>Proyecto&#45;&gt;Material</title>
<path fill="none" stroke="#bbb9bf" d="M762.1,-432.814C796.887,-412.896 837.989,-386.711 871,-358 874.021,-355.372 877.022,-352.616 879.986,-349.767"/>
<ellipse fill="none" stroke="#bbb9bf" cx="758.257" cy="-434.994" rx="4.00002" ry="4.00002"/>
<polygon fill="#bbb9bf" stroke="#bbb9bf" points="880.185,-349.569 890.447,-345.705 883.729,-346.042 887.273,-342.515 887.273,-342.515 887.273,-342.515 883.729,-346.042 884.099,-339.325 880.185,-349.569 880.185,-349.569"/>
</g>
<!-- Proyecto&#45;&gt;Alianza -->
<g id="edge24" class="edge"><title>Proyecto&#45;&gt;Alianza</title>
<path fill="none" stroke="#4f49ca" d="M662.18,-389.327C658.607,-384.42 654.567,-379.901 650,-376 623.606,-353.455 603.574,-376.175 574,-358 569.647,-355.325 565.419,-352.314 561.335,-349.06"/>
<ellipse fill="none" stroke="#4f49ca" cx="664.556" cy="-392.906" rx="4.00002" ry="4.00002"/>
<polygon fill="#4f49ca" stroke="#4f49ca" points="561.274,-349.008 556.578,-339.098 557.467,-345.766 553.66,-342.524 553.66,-342.524 553.66,-342.524 557.467,-345.766 550.743,-345.95 561.274,-349.008 561.274,-349.008"/>
</g>
<!-- Proyecto&#45;&gt;Rol -->
<g id="edge26" class="edge"><title>Proyecto&#45;&gt;Rol</title>
<path fill="none" stroke="#c7fcef" d="M643.051,-390.094C637.553,-384.682 631.54,-379.86 625,-376 546.997,-329.961 502.107,-400.271 422,-358 411.13,-352.264 401.252,-344.181 392.506,-335.189"/>
<ellipse fill="none" stroke="#c7fcef" cx="646.064" cy="-393.276" rx="4.00002" ry="4.00002"/>
<polygon fill="#c7fcef" stroke="#c7fcef" points="392.497,-335.179 389.054,-324.768 389.118,-331.494 385.738,-327.81 385.738,-327.81 385.738,-327.81 389.118,-331.494 382.422,-330.851 392.497,-335.179 392.497,-335.179"/>
</g>
<!-- Proyecto&#45;&gt;Riesgo -->
<g id="edge22" class="edge"><title>Proyecto&#45;&gt;Riesgo</title>
<path fill="none" stroke="#189fc4" d="M677.324,-388.364C676.576,-384.177 675.8,-380.036 675,-376 672.539,-363.584 669.571,-350.452 666.515,-337.783"/>
<ellipse fill="none" stroke="#189fc4" cx="678.046" cy="-392.519" rx="4.00001" ry="4.00001"/>
<polygon fill="#189fc4" stroke="#189fc4" points="666.435,-337.457 668.424,-326.674 665.244,-332.601 664.053,-327.745 664.053,-327.745 664.053,-327.745 665.244,-332.601 659.683,-328.817 666.435,-337.457 666.435,-337.457"/>
</g>
<!-- Proyecto&#45;&gt;Entregable -->
<g id="edge25" class="edge"><title>Proyecto&#45;&gt;Entregable</title>
<path fill="none" stroke="#819aeb" d="M616.466,-416.367C603.213,-408.434 589.1,-401.204 575,-396 448.086,-349.163 397.884,-410.008 273,-358 258.889,-352.123 245.046,-344.023 232.127,-335.071"/>
<ellipse fill="none" stroke="#819aeb" cx="619.905" cy="-418.48" rx="4.00002" ry="4.00002"/>
<polygon fill="#819aeb" stroke="#819aeb" points="231.903,-334.911 226.401,-325.425 227.84,-331.996 223.777,-329.081 223.777,-329.081 223.777,-329.081 227.84,-331.996 221.154,-332.738 231.903,-334.911 231.903,-334.911"/>
</g>
</g>
</svg>
