<?xml version="1.0" encoding="UTF-8" standalone="no"?>
<!DOCTYPE svg PUBLIC "-//W3C//DTD SVG 1.1//EN"
 "http://www.w3.org/Graphics/SVG/1.1/DTD/svg11.dtd">
<!-- Generated by graphviz version 2.36.0 (20140111.2315)
 -->
<!-- Title: models_diagram Pages: 1 -->
<svg width="1356pt" height="1472pt"
 viewBox="0.00 0.00 1356.00 1472.00" xmlns="http://www.w3.org/2000/svg" xmlns:xlink="http://www.w3.org/1999/xlink">
<g id="graph0" class="graph" transform="scale(1 1) rotate(0) translate(4 1468)">
<title>models_diagram</title>
<polygon fill="none" stroke="none" points="-4,4 -4,-1468 1352,-1468 1352,4 -4,4"/>
<!-- _diagram_info -->
<g id="node1" class="node"><title>_diagram_info</title>
<text text-anchor="start" x="244" y="-1427.6" font-family="Times,serif" font-size="13.00">Models diagram</text>
<text text-anchor="start" x="244" y="-1413.6" font-family="Times,serif" font-size="13.00">Date: Dec 06 2015 &#45; 20:30</text>
<text text-anchor="start" x="244" y="-1399.6" font-family="Times,serif" font-size="13.00">Migration version: 20151204221644</text>
<text text-anchor="start" x="244" y="-1385.6" font-family="Times,serif" font-size="13.00">Generated by RailRoady 1.4.1</text>
<text text-anchor="start" x="244" y="-1371.6" font-family="Times,serif" font-size="13.00">http://railroady.prestonlee.com</text>
</g>
<!-- Direccion -->
<g id="node2" class="node"><title>Direccion</title>
<path fill="none" stroke="black" d="M138.5,-1010C138.5,-1010 245.5,-1010 245.5,-1010 251.5,-1010 257.5,-1016 257.5,-1022 257.5,-1022 257.5,-1164 257.5,-1164 257.5,-1170 251.5,-1176 245.5,-1176 245.5,-1176 138.5,-1176 138.5,-1176 132.5,-1176 126.5,-1170 126.5,-1164 126.5,-1164 126.5,-1022 126.5,-1022 126.5,-1016 132.5,-1010 138.5,-1010"/>
<text text-anchor="middle" x="192" y="-1160.8" font-family="Times,serif" font-size="14.00">Direccion</text>
<polyline fill="none" stroke="black" points="126.5,-1153 257.5,-1153 "/>
<text text-anchor="start" x="134.5" y="-1137.8" font-family="Times,serif" font-size="14.00">id :INTEGER</text>
<text text-anchor="start" x="134.5" y="-1122.8" font-family="Times,serif" font-size="14.00">tipo :varchar</text>
<text text-anchor="start" x="134.5" y="-1107.8" font-family="Times,serif" font-size="14.00">pais :varchar</text>
<text text-anchor="start" x="134.5" y="-1092.8" font-family="Times,serif" font-size="14.00">provincia :varchar</text>
<text text-anchor="start" x="134.5" y="-1077.8" font-family="Times,serif" font-size="14.00">ciudad :varchar</text>
<text text-anchor="start" x="134.5" y="-1062.8" font-family="Times,serif" font-size="14.00">dirExac :varchar</text>
<text text-anchor="start" x="134.5" y="-1047.8" font-family="Times,serif" font-size="14.00">persona_id :integer</text>
<text text-anchor="start" x="134.5" y="-1032.8" font-family="Times,serif" font-size="14.00">created_at :datetime</text>
<text text-anchor="start" x="134.5" y="-1017.8" font-family="Times,serif" font-size="14.00">updated_at :datetime</text>
</g>
<!-- Portafolio -->
<g id="node3" class="node"><title>Portafolio</title>
<path fill="none" stroke="black" d="M556.5,-571C556.5,-571 663.5,-571 663.5,-571 669.5,-571 675.5,-577 675.5,-583 675.5,-583 675.5,-665 675.5,-665 675.5,-671 669.5,-677 663.5,-677 663.5,-677 556.5,-677 556.5,-677 550.5,-677 544.5,-671 544.5,-665 544.5,-665 544.5,-583 544.5,-583 544.5,-577 550.5,-571 556.5,-571"/>
<text text-anchor="middle" x="610" y="-661.8" font-family="Times,serif" font-size="14.00">Portafolio</text>
<polyline fill="none" stroke="black" points="544.5,-654 675.5,-654 "/>
<text text-anchor="start" x="552.5" y="-638.8" font-family="Times,serif" font-size="14.00">id :INTEGER</text>
<text text-anchor="start" x="552.5" y="-623.8" font-family="Times,serif" font-size="14.00">fechaCreac :date</text>
<text text-anchor="start" x="552.5" y="-608.8" font-family="Times,serif" font-size="14.00">cliente_id :integer</text>
<text text-anchor="start" x="552.5" y="-593.8" font-family="Times,serif" font-size="14.00">created_at :datetime</text>
<text text-anchor="start" x="552.5" y="-578.8" font-family="Times,serif" font-size="14.00">updated_at :datetime</text>
</g>
<!-- Hoja -->
<g id="node11" class="node"><title>Hoja</title>
<path fill="none" stroke="black" d="M553,-410.5C553,-410.5 661,-410.5 661,-410.5 667,-410.5 673,-416.5 673,-422.5 673,-422.5 673,-519.5 673,-519.5 673,-525.5 667,-531.5 661,-531.5 661,-531.5 553,-531.5 553,-531.5 547,-531.5 541,-525.5 541,-519.5 541,-519.5 541,-422.5 541,-422.5 541,-416.5 547,-410.5 553,-410.5"/>
<text text-anchor="middle" x="607" y="-516.3" font-family="Times,serif" font-size="14.00">Hoja</text>
<polyline fill="none" stroke="black" points="541,-508.5 673,-508.5 "/>
<text text-anchor="start" x="549" y="-493.3" font-family="Times,serif" font-size="14.00">id :INTEGER</text>
<text text-anchor="start" x="549" y="-478.3" font-family="Times,serif" font-size="14.00">tiempoDef :varchar</text>
<text text-anchor="start" x="549" y="-463.3" font-family="Times,serif" font-size="14.00">razonDeSer :varchar</text>
<text text-anchor="start" x="549" y="-448.3" font-family="Times,serif" font-size="14.00">portafolio_id :integer</text>
<text text-anchor="start" x="549" y="-433.3" font-family="Times,serif" font-size="14.00">created_at :datetime</text>
<text text-anchor="start" x="549" y="-418.3" font-family="Times,serif" font-size="14.00">updated_at :datetime</text>
</g>
<!-- Portafolio&#45;&gt;Hoja -->
<g id="edge1" class="edge"><title>Portafolio&#45;&gt;Hoja</title>
<path fill="none" stroke="#05c456" d="M608.798,-562.522C608.662,-555.663 608.522,-548.632 608.384,-541.668"/>
<ellipse fill="none" stroke="#05c456" cx="608.88" cy="-566.612" rx="4" ry="4"/>
<polygon fill="#05c456" stroke="#05c456" points="608.382,-541.538 612.682,-531.451 608.282,-536.539 608.183,-531.54 608.183,-531.54 608.183,-531.54 608.282,-536.539 603.684,-531.63 608.382,-541.538 608.382,-541.538"/>
</g>
<!-- Bitacora -->
<g id="node4" class="node"><title>Bitacora</title>
<path fill="none" stroke="black" d="M644.5,-228C644.5,-228 755.5,-228 755.5,-228 761.5,-228 767.5,-234 767.5,-240 767.5,-240 767.5,-352 767.5,-352 767.5,-358 761.5,-364 755.5,-364 755.5,-364 644.5,-364 644.5,-364 638.5,-364 632.5,-358 632.5,-352 632.5,-352 632.5,-240 632.5,-240 632.5,-234 638.5,-228 644.5,-228"/>
<text text-anchor="middle" x="700" y="-348.8" font-family="Times,serif" font-size="14.00">Bitacora</text>
<polyline fill="none" stroke="black" points="632.5,-341 767.5,-341 "/>
<text text-anchor="start" x="640.5" y="-325.8" font-family="Times,serif" font-size="14.00">id :INTEGER</text>
<text text-anchor="start" x="640.5" y="-310.8" font-family="Times,serif" font-size="14.00">created_at :datetime</text>
<text text-anchor="start" x="640.5" y="-295.8" font-family="Times,serif" font-size="14.00">updated_at :datetime</text>
<text text-anchor="start" x="640.5" y="-280.8" font-family="Times,serif" font-size="14.00">entregable_id :integer</text>
<text text-anchor="start" x="640.5" y="-265.8" font-family="Times,serif" font-size="14.00">recurso_id :integer</text>
<text text-anchor="start" x="640.5" y="-250.8" font-family="Times,serif" font-size="14.00">descripcion :varchar</text>
<text text-anchor="start" x="640.5" y="-235.8" font-family="Times,serif" font-size="14.00">fecha :date</text>
</g>
<!-- Documento -->
<g id="node5" class="node"><title>Documento</title>
<path fill="none" stroke="black" d="M160.5,-0.5C160.5,-0.5 267.5,-0.5 267.5,-0.5 273.5,-0.5 279.5,-6.5 279.5,-12.5 279.5,-12.5 279.5,-169.5 279.5,-169.5 279.5,-175.5 273.5,-181.5 267.5,-181.5 267.5,-181.5 160.5,-181.5 160.5,-181.5 154.5,-181.5 148.5,-175.5 148.5,-169.5 148.5,-169.5 148.5,-12.5 148.5,-12.5 148.5,-6.5 154.5,-0.5 160.5,-0.5"/>
<text text-anchor="middle" x="214" y="-166.3" font-family="Times,serif" font-size="14.00">Documento</text>
<polyline fill="none" stroke="black" points="148.5,-158.5 279.5,-158.5 "/>
<text text-anchor="start" x="156.5" y="-143.3" font-family="Times,serif" font-size="14.00">id :INTEGER</text>
<text text-anchor="start" x="156.5" y="-128.3" font-family="Times,serif" font-size="14.00">titulo :varchar</text>
<text text-anchor="start" x="156.5" y="-113.3" font-family="Times,serif" font-size="14.00">razon :varchar</text>
<text text-anchor="start" x="156.5" y="-98.3" font-family="Times,serif" font-size="14.00">tiempo :varchar</text>
<text text-anchor="start" x="156.5" y="-83.3" font-family="Times,serif" font-size="14.00">precio :float</text>
<text text-anchor="start" x="156.5" y="-68.3" font-family="Times,serif" font-size="14.00">costo :float</text>
<text text-anchor="start" x="156.5" y="-53.3" font-family="Times,serif" font-size="14.00">estado :varchar</text>
<text text-anchor="start" x="156.5" y="-38.3" font-family="Times,serif" font-size="14.00">proyecto_id :integer</text>
<text text-anchor="start" x="156.5" y="-23.3" font-family="Times,serif" font-size="14.00">created_at :datetime</text>
<text text-anchor="start" x="156.5" y="-8.3" font-family="Times,serif" font-size="14.00">updated_at :datetime</text>
</g>
<!-- Juridica -->
<g id="node6" class="node"><title>Juridica</title>
<path fill="none" stroke="black" d="M287.5,-1032.5C287.5,-1032.5 394.5,-1032.5 394.5,-1032.5 400.5,-1032.5 406.5,-1038.5 406.5,-1044.5 406.5,-1044.5 406.5,-1141.5 406.5,-1141.5 406.5,-1147.5 400.5,-1153.5 394.5,-1153.5 394.5,-1153.5 287.5,-1153.5 287.5,-1153.5 281.5,-1153.5 275.5,-1147.5 275.5,-1141.5 275.5,-1141.5 275.5,-1044.5 275.5,-1044.5 275.5,-1038.5 281.5,-1032.5 287.5,-1032.5"/>
<text text-anchor="middle" x="341" y="-1138.3" font-family="Times,serif" font-size="14.00">Juridica</text>
<polyline fill="none" stroke="black" points="275.5,-1130.5 406.5,-1130.5 "/>
<text text-anchor="start" x="283.5" y="-1115.3" font-family="Times,serif" font-size="14.00">id :INTEGER</text>
<text text-anchor="start" x="283.5" y="-1100.3" font-family="Times,serif" font-size="14.00">razonSocial :varchar</text>
<text text-anchor="start" x="283.5" y="-1085.3" font-family="Times,serif" font-size="14.00">fechaCreac :date</text>
<text text-anchor="start" x="283.5" y="-1070.3" font-family="Times,serif" font-size="14.00">persona_id :integer</text>
<text text-anchor="start" x="283.5" y="-1055.3" font-family="Times,serif" font-size="14.00">created_at :datetime</text>
<text text-anchor="start" x="283.5" y="-1040.3" font-family="Times,serif" font-size="14.00">updated_at :datetime</text>
</g>
<!-- Telefono -->
<g id="node7" class="node"><title>Telefono</title>
<path fill="none" stroke="black" d="M436.5,-1032.5C436.5,-1032.5 543.5,-1032.5 543.5,-1032.5 549.5,-1032.5 555.5,-1038.5 555.5,-1044.5 555.5,-1044.5 555.5,-1141.5 555.5,-1141.5 555.5,-1147.5 549.5,-1153.5 543.5,-1153.5 543.5,-1153.5 436.5,-1153.5 436.5,-1153.5 430.5,-1153.5 424.5,-1147.5 424.5,-1141.5 424.5,-1141.5 424.5,-1044.5 424.5,-1044.5 424.5,-1038.5 430.5,-1032.5 436.5,-1032.5"/>
<text text-anchor="middle" x="490" y="-1138.3" font-family="Times,serif" font-size="14.00">Telefono</text>
<polyline fill="none" stroke="black" points="424.5,-1130.5 555.5,-1130.5 "/>
<text text-anchor="start" x="432.5" y="-1115.3" font-family="Times,serif" font-size="14.00">id :INTEGER</text>
<text text-anchor="start" x="432.5" y="-1100.3" font-family="Times,serif" font-size="14.00">tipo :varchar</text>
<text text-anchor="start" x="432.5" y="-1085.3" font-family="Times,serif" font-size="14.00">numero :integer</text>
<text text-anchor="start" x="432.5" y="-1070.3" font-family="Times,serif" font-size="14.00">persona_id :integer</text>
<text text-anchor="start" x="432.5" y="-1055.3" font-family="Times,serif" font-size="14.00">created_at :datetime</text>
<text text-anchor="start" x="432.5" y="-1040.3" font-family="Times,serif" font-size="14.00">updated_at :datetime</text>
</g>
<!-- Persona -->
<g id="node8" class="node"><title>Persona</title>
<path fill="none" stroke="black" d="M480.5,-1342.5C480.5,-1342.5 587.5,-1342.5 587.5,-1342.5 593.5,-1342.5 599.5,-1348.5 599.5,-1354.5 599.5,-1354.5 599.5,-1451.5 599.5,-1451.5 599.5,-1457.5 593.5,-1463.5 587.5,-1463.5 587.5,-1463.5 480.5,-1463.5 480.5,-1463.5 474.5,-1463.5 468.5,-1457.5 468.5,-1451.5 468.5,-1451.5 468.5,-1354.5 468.5,-1354.5 468.5,-1348.5 474.5,-1342.5 480.5,-1342.5"/>
<text text-anchor="middle" x="534" y="-1448.3" font-family="Times,serif" font-size="14.00">Persona</text>
<polyline fill="none" stroke="black" points="468.5,-1440.5 599.5,-1440.5 "/>
<text text-anchor="start" x="476.5" y="-1425.3" font-family="Times,serif" font-size="14.00">id :INTEGER</text>
<text text-anchor="start" x="476.5" y="-1410.3" font-family="Times,serif" font-size="14.00">idPersona :varchar</text>
<text text-anchor="start" x="476.5" y="-1395.3" font-family="Times,serif" font-size="14.00">email :varchar</text>
<text text-anchor="start" x="476.5" y="-1380.3" font-family="Times,serif" font-size="14.00">tipoPersona :varchar</text>
<text text-anchor="start" x="476.5" y="-1365.3" font-family="Times,serif" font-size="14.00">created_at :datetime</text>
<text text-anchor="start" x="476.5" y="-1350.3" font-family="Times,serif" font-size="14.00">updated_at :datetime</text>
</g>
<!-- Persona&#45;&gt;Direccion -->
<g id="edge4" class="edge"><title>Persona&#45;&gt;Direccion</title>
<path fill="none" stroke="#a55ea7" d="M461.286,-1343.57C460.193,-1343.03 459.097,-1342.51 458,-1342 378.997,-1305.59 331.759,-1360.95 266,-1304 231.711,-1274.31 213.308,-1227.71 203.432,-1185.95"/>
<ellipse fill="none" stroke="#a55ea7" cx="464.926" cy="-1345.51" rx="4.00002" ry="4.00002"/>
<polygon fill="#a55ea7" stroke="#a55ea7" points="203.393,-1185.77 205.61,-1175.03 202.305,-1180.89 201.218,-1176.01 201.218,-1176.01 201.218,-1176.01 202.305,-1180.89 196.826,-1176.99 203.393,-1185.77 203.393,-1185.77"/>
</g>
<!-- Persona&#45;&gt;Juridica -->
<g id="edge2" class="edge"><title>Persona&#45;&gt;Juridica</title>
<path fill="none" stroke="#0da69d" d="M462.013,-1345.28C439.276,-1326.86 418.978,-1309.69 415,-1304 385.07,-1261.21 366.122,-1205.1 354.899,-1161.65"/>
<ellipse fill="none" stroke="#0da69d" cx="465.366" cy="-1347.98" rx="4.00002" ry="4.00002"/>
<ellipse fill="#0da69d" stroke="#0da69d" cx="353.871" cy="-1157.56" rx="4.00001" ry="4.00001"/>
</g>
<!-- Persona&#45;&gt;Telefono -->
<g id="edge5" class="edge"><title>Persona&#45;&gt;Telefono</title>
<path fill="none" stroke="#84ca8e" d="M524.3,-1334.1C517.068,-1283.48 507.222,-1214.55 499.934,-1163.54"/>
<ellipse fill="none" stroke="#84ca8e" cx="524.898" cy="-1338.29" rx="4.00001" ry="4.00001"/>
<polygon fill="#84ca8e" stroke="#84ca8e" points="499.926,-1163.48 502.967,-1152.95 499.219,-1158.53 498.512,-1153.58 498.512,-1153.58 498.512,-1153.58 499.219,-1158.53 494.057,-1154.22 499.926,-1163.48 499.926,-1163.48"/>
</g>
<!-- Fisica -->
<g id="node12" class="node"><title>Fisica</title>
<path fill="none" stroke="black" d="M688.5,-697C688.5,-697 795.5,-697 795.5,-697 801.5,-697 807.5,-703 807.5,-709 807.5,-709 807.5,-851 807.5,-851 807.5,-857 801.5,-863 795.5,-863 795.5,-863 688.5,-863 688.5,-863 682.5,-863 676.5,-857 676.5,-851 676.5,-851 676.5,-709 676.5,-709 676.5,-703 682.5,-697 688.5,-697"/>
<text text-anchor="middle" x="742" y="-847.8" font-family="Times,serif" font-size="14.00">Fisica</text>
<polyline fill="none" stroke="black" points="676.5,-840 807.5,-840 "/>
<text text-anchor="start" x="684.5" y="-824.8" font-family="Times,serif" font-size="14.00">id :INTEGER</text>
<text text-anchor="start" x="684.5" y="-809.8" font-family="Times,serif" font-size="14.00">nombre :varchar</text>
<text text-anchor="start" x="684.5" y="-794.8" font-family="Times,serif" font-size="14.00">apellido1 :varchar</text>
<text text-anchor="start" x="684.5" y="-779.8" font-family="Times,serif" font-size="14.00">apellido2 :varchar</text>
<text text-anchor="start" x="684.5" y="-764.8" font-family="Times,serif" font-size="14.00">sexo :varchar</text>
<text text-anchor="start" x="684.5" y="-749.8" font-family="Times,serif" font-size="14.00">fechaNac :date</text>
<text text-anchor="start" x="684.5" y="-734.8" font-family="Times,serif" font-size="14.00">persona_id :integer</text>
<text text-anchor="start" x="684.5" y="-719.8" font-family="Times,serif" font-size="14.00">created_at :datetime</text>
<text text-anchor="start" x="684.5" y="-704.8" font-family="Times,serif" font-size="14.00">updated_at :datetime</text>
</g>
<!-- Persona&#45;&gt;Fisica -->
<g id="edge3" class="edge"><title>Persona&#45;&gt;Fisica</title>
<path fill="none" stroke="#eaaafe" d="M607.51,-1381.51C646.349,-1366.63 690.859,-1342.24 715,-1304 758.941,-1234.39 754.228,-1001.57 747.706,-871.269"/>
<ellipse fill="none" stroke="#eaaafe" cx="603.576" cy="-1382.96" rx="4.00001" ry="4.00001"/>
<ellipse fill="#eaaafe" stroke="#eaaafe" cx="747.499" cy="-867.217" rx="4" ry="4"/>
</g>
<!-- User -->
<g id="node17" class="node"><title>User</title>
<path fill="none" stroke="black" d="M774.5,-882.5C774.5,-882.5 917.5,-882.5 917.5,-882.5 923.5,-882.5 929.5,-888.5 929.5,-894.5 929.5,-894.5 929.5,-1291.5 929.5,-1291.5 929.5,-1297.5 923.5,-1303.5 917.5,-1303.5 917.5,-1303.5 774.5,-1303.5 774.5,-1303.5 768.5,-1303.5 762.5,-1297.5 762.5,-1291.5 762.5,-1291.5 762.5,-894.5 762.5,-894.5 762.5,-888.5 768.5,-882.5 774.5,-882.5"/>
<text text-anchor="middle" x="846" y="-1288.3" font-family="Times,serif" font-size="14.00">User</text>
<polyline fill="none" stroke="black" points="762.5,-1280.5 929.5,-1280.5 "/>
<text text-anchor="start" x="770.5" y="-1265.3" font-family="Times,serif" font-size="14.00">id :INTEGER</text>
<text text-anchor="start" x="770.5" y="-1250.3" font-family="Times,serif" font-size="14.00">usuario :varchar</text>
<text text-anchor="start" x="770.5" y="-1235.3" font-family="Times,serif" font-size="14.00">remember_session :varchar</text>
<text text-anchor="start" x="770.5" y="-1220.3" font-family="Times,serif" font-size="14.00">estado :boolean</text>
<text text-anchor="start" x="770.5" y="-1205.3" font-family="Times,serif" font-size="14.00">IdTipo :varchar</text>
<text text-anchor="start" x="770.5" y="-1190.3" font-family="Times,serif" font-size="14.00">IdPersona :varchar</text>
<text text-anchor="start" x="770.5" y="-1175.3" font-family="Times,serif" font-size="14.00">created_at :datetime</text>
<text text-anchor="start" x="770.5" y="-1160.3" font-family="Times,serif" font-size="14.00">updated_at :datetime</text>
<text text-anchor="start" x="770.5" y="-1145.3" font-family="Times,serif" font-size="14.00">password_digest :varchar</text>
<text text-anchor="start" x="770.5" y="-1130.3" font-family="Times,serif" font-size="14.00">oauth_token :varchar</text>
<text text-anchor="start" x="770.5" y="-1115.3" font-family="Times,serif" font-size="14.00">oauth_expires_at :datetime</text>
<text text-anchor="start" x="770.5" y="-1100.3" font-family="Times,serif" font-size="14.00">password :varchar</text>
<text text-anchor="start" x="770.5" y="-1085.3" font-family="Times,serif" font-size="14.00">provider :varchar</text>
<text text-anchor="start" x="770.5" y="-1070.3" font-family="Times,serif" font-size="14.00">uid :varchar</text>
<text text-anchor="start" x="770.5" y="-1055.3" font-family="Times,serif" font-size="14.00">remember_digest :varchar</text>
<text text-anchor="start" x="770.5" y="-1040.3" font-family="Times,serif" font-size="14.00">persona_id :integer</text>
<text text-anchor="start" x="770.5" y="-1025.3" font-family="Times,serif" font-size="14.00">activation_digest :varchar</text>
<text text-anchor="start" x="770.5" y="-1010.3" font-family="Times,serif" font-size="14.00">activated :boolean</text>
<text text-anchor="start" x="770.5" y="-995.3" font-family="Times,serif" font-size="14.00">activated_at :datetime</text>
<text text-anchor="start" x="770.5" y="-980.3" font-family="Times,serif" font-size="14.00">reset_digest :varchar</text>
<text text-anchor="start" x="770.5" y="-965.3" font-family="Times,serif" font-size="14.00">reset_sent_at :datetime</text>
<text text-anchor="start" x="770.5" y="-950.3" font-family="Times,serif" font-size="14.00">foto_file_name :varchar</text>
<text text-anchor="start" x="770.5" y="-935.3" font-family="Times,serif" font-size="14.00">foto_content_type :varchar</text>
<text text-anchor="start" x="770.5" y="-920.3" font-family="Times,serif" font-size="14.00">foto_file_size :integer</text>
<text text-anchor="start" x="770.5" y="-905.3" font-family="Times,serif" font-size="14.00">foto_updated_at :datetime</text>
<text text-anchor="start" x="770.5" y="-890.3" font-family="Times,serif" font-size="14.00">tipo_usuario :varchar</text>
</g>
<!-- Persona&#45;&gt;User -->
<g id="edge7" class="edge"><title>Persona&#45;&gt;User</title>
<path fill="none" stroke="#46e3bd" d="M607.711,-1390.7C653.366,-1380.29 710.441,-1360.64 749,-1324 753.694,-1319.54 758.17,-1314.82 762.439,-1309.88"/>
<ellipse fill="none" stroke="#46e3bd" cx="603.524" cy="-1391.62" rx="4.00001" ry="4.00001"/>
<ellipse fill="#46e3bd" stroke="#46e3bd" cx="765.178" cy="-1306.58" rx="4.00002" ry="4.00002"/>
</g>
<!-- Cliente -->
<g id="node19" class="node"><title>Cliente</title>
<path fill="none" stroke="black" d="M585.5,-1040C585.5,-1040 694.5,-1040 694.5,-1040 700.5,-1040 706.5,-1046 706.5,-1052 706.5,-1052 706.5,-1134 706.5,-1134 706.5,-1140 700.5,-1146 694.5,-1146 694.5,-1146 585.5,-1146 585.5,-1146 579.5,-1146 573.5,-1140 573.5,-1134 573.5,-1134 573.5,-1052 573.5,-1052 573.5,-1046 579.5,-1040 585.5,-1040"/>
<text text-anchor="middle" x="640" y="-1130.8" font-family="Times,serif" font-size="14.00">Cliente</text>
<polyline fill="none" stroke="black" points="573.5,-1123 706.5,-1123 "/>
<text text-anchor="start" x="581.5" y="-1107.8" font-family="Times,serif" font-size="14.00">id :INTEGER</text>
<text text-anchor="start" x="581.5" y="-1092.8" font-family="Times,serif" font-size="14.00">nombreEmp :varchar</text>
<text text-anchor="start" x="581.5" y="-1077.8" font-family="Times,serif" font-size="14.00">persona_id :integer</text>
<text text-anchor="start" x="581.5" y="-1062.8" font-family="Times,serif" font-size="14.00">created_at :datetime</text>
<text text-anchor="start" x="581.5" y="-1047.8" font-family="Times,serif" font-size="14.00">updated_at :datetime</text>
</g>
<!-- Persona&#45;&gt;Cliente -->
<g id="edge6" class="edge"><title>Persona&#45;&gt;Cliente</title>
<path fill="none" stroke="#085301" d="M557.261,-1334.41C575.811,-1280.51 601.549,-1205.73 619.371,-1153.94"/>
<ellipse fill="none" stroke="#085301" cx="555.865" cy="-1338.47" rx="4.00001" ry="4.00001"/>
<ellipse fill="#085301" stroke="#085301" cx="620.749" cy="-1149.94" rx="4.00001" ry="4.00001"/>
</g>
<!-- Certificacion -->
<g id="node9" class="node"><title>Certificacion</title>
<path fill="none" stroke="black" d="M1099.5,-243C1099.5,-243 1206.5,-243 1206.5,-243 1212.5,-243 1218.5,-249 1218.5,-255 1218.5,-255 1218.5,-337 1218.5,-337 1218.5,-343 1212.5,-349 1206.5,-349 1206.5,-349 1099.5,-349 1099.5,-349 1093.5,-349 1087.5,-343 1087.5,-337 1087.5,-337 1087.5,-255 1087.5,-255 1087.5,-249 1093.5,-243 1099.5,-243"/>
<text text-anchor="middle" x="1153" y="-333.8" font-family="Times,serif" font-size="14.00">Certificacion</text>
<polyline fill="none" stroke="black" points="1087.5,-326 1218.5,-326 "/>
<text text-anchor="start" x="1095.5" y="-310.8" font-family="Times,serif" font-size="14.00">id :INTEGER</text>
<text text-anchor="start" x="1095.5" y="-295.8" font-family="Times,serif" font-size="14.00">descripcion :varchar</text>
<text text-anchor="start" x="1095.5" y="-280.8" font-family="Times,serif" font-size="14.00">recurso_id :integer</text>
<text text-anchor="start" x="1095.5" y="-265.8" font-family="Times,serif" font-size="14.00">created_at :datetime</text>
<text text-anchor="start" x="1095.5" y="-250.8" font-family="Times,serif" font-size="14.00">updated_at :datetime</text>
</g>
<!-- Material -->
<g id="node10" class="node"><title>Material</title>
<path fill="none" stroke="black" d="M309.5,-15.5C309.5,-15.5 416.5,-15.5 416.5,-15.5 422.5,-15.5 428.5,-21.5 428.5,-27.5 428.5,-27.5 428.5,-154.5 428.5,-154.5 428.5,-160.5 422.5,-166.5 416.5,-166.5 416.5,-166.5 309.5,-166.5 309.5,-166.5 303.5,-166.5 297.5,-160.5 297.5,-154.5 297.5,-154.5 297.5,-27.5 297.5,-27.5 297.5,-21.5 303.5,-15.5 309.5,-15.5"/>
<text text-anchor="middle" x="363" y="-151.3" font-family="Times,serif" font-size="14.00">Material</text>
<polyline fill="none" stroke="black" points="297.5,-143.5 428.5,-143.5 "/>
<text text-anchor="start" x="305.5" y="-128.3" font-family="Times,serif" font-size="14.00">id :INTEGER</text>
<text text-anchor="start" x="305.5" y="-113.3" font-family="Times,serif" font-size="14.00">tipo :varchar</text>
<text text-anchor="start" x="305.5" y="-98.3" font-family="Times,serif" font-size="14.00">descripcion :varchar</text>
<text text-anchor="start" x="305.5" y="-83.3" font-family="Times,serif" font-size="14.00">uso :varchar</text>
<text text-anchor="start" x="305.5" y="-68.3" font-family="Times,serif" font-size="14.00">fechaFin :date</text>
<text text-anchor="start" x="305.5" y="-53.3" font-family="Times,serif" font-size="14.00">proyecto_id :integer</text>
<text text-anchor="start" x="305.5" y="-38.3" font-family="Times,serif" font-size="14.00">created_at :datetime</text>
<text text-anchor="start" x="305.5" y="-23.3" font-family="Times,serif" font-size="14.00">updated_at :datetime</text>
</g>
<!-- Proyecto -->
<g id="node21" class="node"><title>Proyecto</title>
<path fill="none" stroke="black" d="M456.5,-220.5C456.5,-220.5 563.5,-220.5 563.5,-220.5 569.5,-220.5 575.5,-226.5 575.5,-232.5 575.5,-232.5 575.5,-359.5 575.5,-359.5 575.5,-365.5 569.5,-371.5 563.5,-371.5 563.5,-371.5 456.5,-371.5 456.5,-371.5 450.5,-371.5 444.5,-365.5 444.5,-359.5 444.5,-359.5 444.5,-232.5 444.5,-232.5 444.5,-226.5 450.5,-220.5 456.5,-220.5"/>
<text text-anchor="middle" x="510" y="-356.3" font-family="Times,serif" font-size="14.00">Proyecto</text>
<polyline fill="none" stroke="black" points="444.5,-348.5 575.5,-348.5 "/>
<text text-anchor="start" x="452.5" y="-333.3" font-family="Times,serif" font-size="14.00">id :INTEGER</text>
<text text-anchor="start" x="452.5" y="-318.3" font-family="Times,serif" font-size="14.00">nombre :varchar</text>
<text text-anchor="start" x="452.5" y="-303.3" font-family="Times,serif" font-size="14.00">presupuesto :float</text>
<text text-anchor="start" x="452.5" y="-288.3" font-family="Times,serif" font-size="14.00">precio :float</text>
<text text-anchor="start" x="452.5" y="-273.3" font-family="Times,serif" font-size="14.00">estado :varchar</text>
<text text-anchor="start" x="452.5" y="-258.3" font-family="Times,serif" font-size="14.00">hoja_id :integer</text>
<text text-anchor="start" x="452.5" y="-243.3" font-family="Times,serif" font-size="14.00">created_at :datetime</text>
<text text-anchor="start" x="452.5" y="-228.3" font-family="Times,serif" font-size="14.00">updated_at :datetime</text>
</g>
<!-- Hoja&#45;&gt;Proyecto -->
<g id="edge8" class="edge"><title>Hoja&#45;&gt;Proyecto</title>
<path fill="none" stroke="#cfedb9" d="M560.675,-403.328C558.359,-399.532 556.118,-395.74 554,-392 551.647,-387.846 549.314,-383.544 547.022,-379.169"/>
<ellipse fill="none" stroke="#cfedb9" cx="562.804" cy="-406.755" rx="4.00002" ry="4.00002"/>
<ellipse fill="#cfedb9" stroke="#cfedb9" cx="545.035" cy="-375.306" rx="4.00002" ry="4.00002"/>
</g>
<!-- Recurso -->
<g id="node14" class="node"><title>Recurso</title>
<path fill="none" stroke="black" d="M799.5,-410.5C799.5,-410.5 906.5,-410.5 906.5,-410.5 912.5,-410.5 918.5,-416.5 918.5,-422.5 918.5,-422.5 918.5,-519.5 918.5,-519.5 918.5,-525.5 912.5,-531.5 906.5,-531.5 906.5,-531.5 799.5,-531.5 799.5,-531.5 793.5,-531.5 787.5,-525.5 787.5,-519.5 787.5,-519.5 787.5,-422.5 787.5,-422.5 787.5,-416.5 793.5,-410.5 799.5,-410.5"/>
<text text-anchor="middle" x="853" y="-516.3" font-family="Times,serif" font-size="14.00">Recurso</text>
<polyline fill="none" stroke="black" points="787.5,-508.5 918.5,-508.5 "/>
<text text-anchor="start" x="795.5" y="-493.3" font-family="Times,serif" font-size="14.00">id :INTEGER</text>
<text text-anchor="start" x="795.5" y="-478.3" font-family="Times,serif" font-size="14.00">almaMater :varchar</text>
<text text-anchor="start" x="795.5" y="-463.3" font-family="Times,serif" font-size="14.00">fisica_id :integer</text>
<text text-anchor="start" x="795.5" y="-448.3" font-family="Times,serif" font-size="14.00">created_at :datetime</text>
<text text-anchor="start" x="795.5" y="-433.3" font-family="Times,serif" font-size="14.00">updated_at :datetime</text>
<text text-anchor="start" x="795.5" y="-418.3" font-family="Times,serif" font-size="14.00">estado :boolean</text>
</g>
<!-- Fisica&#45;&gt;Recurso -->
<g id="edge9" class="edge"><title>Fisica&#45;&gt;Recurso</title>
<path fill="none" stroke="#97c1cc" d="M774.537,-689.01C791.84,-641.156 812.757,-583.303 828.642,-539.369"/>
<ellipse fill="none" stroke="#97c1cc" cx="773.106" cy="-692.968" rx="4.00001" ry="4.00001"/>
<ellipse fill="#97c1cc" stroke="#97c1cc" cx="830.087" cy="-535.372" rx="4.00001" ry="4.00001"/>
</g>
<!-- Alianza -->
<g id="node13" class="node"><title>Alianza</title>
<path fill="none" stroke="black" d="M458.5,-15.5C458.5,-15.5 567.5,-15.5 567.5,-15.5 573.5,-15.5 579.5,-21.5 579.5,-27.5 579.5,-27.5 579.5,-154.5 579.5,-154.5 579.5,-160.5 573.5,-166.5 567.5,-166.5 567.5,-166.5 458.5,-166.5 458.5,-166.5 452.5,-166.5 446.5,-160.5 446.5,-154.5 446.5,-154.5 446.5,-27.5 446.5,-27.5 446.5,-21.5 452.5,-15.5 458.5,-15.5"/>
<text text-anchor="middle" x="513" y="-151.3" font-family="Times,serif" font-size="14.00">Alianza</text>
<polyline fill="none" stroke="black" points="446.5,-143.5 579.5,-143.5 "/>
<text text-anchor="start" x="454.5" y="-128.3" font-family="Times,serif" font-size="14.00">id :INTEGER</text>
<text text-anchor="start" x="454.5" y="-113.3" font-family="Times,serif" font-size="14.00">tipo :varchar</text>
<text text-anchor="start" x="454.5" y="-98.3" font-family="Times,serif" font-size="14.00">nombreEmp :varchar</text>
<text text-anchor="start" x="454.5" y="-83.3" font-family="Times,serif" font-size="14.00">proposito :varchar</text>
<text text-anchor="start" x="454.5" y="-68.3" font-family="Times,serif" font-size="14.00">fechaFin :date</text>
<text text-anchor="start" x="454.5" y="-53.3" font-family="Times,serif" font-size="14.00">proyecto_id :integer</text>
<text text-anchor="start" x="454.5" y="-38.3" font-family="Times,serif" font-size="14.00">created_at :datetime</text>
<text text-anchor="start" x="454.5" y="-23.3" font-family="Times,serif" font-size="14.00">updated_at :datetime</text>
</g>
<!-- Recurso&#45;&gt;Bitacora -->
<g id="edge16" class="edge"><title>Recurso&#45;&gt;Bitacora</title>
<path fill="none" stroke="#5d4ad7" d="M795.025,-404.446C785.531,-393.712 775.633,-382.519 765.963,-371.586"/>
<ellipse fill="none" stroke="#5d4ad7" cx="797.696" cy="-407.467" rx="4.00002" ry="4.00002"/>
<polygon fill="#5d4ad7" stroke="#5d4ad7" points="765.938,-371.557 762.684,-361.085 762.625,-367.812 759.313,-364.066 759.313,-364.066 759.313,-364.066 762.625,-367.812 755.942,-367.047 765.938,-371.557 765.938,-371.557"/>
</g>
<!-- Recurso&#45;&gt;Certificacion -->
<g id="edge10" class="edge"><title>Recurso&#45;&gt;Certificacion</title>
<path fill="none" stroke="#5f4990" d="M926.385,-446.002C972.188,-429.147 1031.14,-403.929 1078,-372 1085,-367.231 1091.91,-361.754 1098.53,-355.977"/>
<ellipse fill="none" stroke="#5f4990" cx="922.621" cy="-447.371" rx="4.00001" ry="4.00001"/>
<polygon fill="#5f4990" stroke="#5f4990" points="1098.73,-355.788 1109.17,-352.422 1102.44,-352.436 1106.15,-349.083 1106.15,-349.083 1106.15,-349.083 1102.44,-352.436 1103.14,-345.745 1098.73,-355.788 1098.73,-355.788"/>
</g>
<!-- Rol -->
<g id="node15" class="node"><title>Rol</title>
<path fill="none" stroke="black" d="M609.5,-30.5C609.5,-30.5 716.5,-30.5 716.5,-30.5 722.5,-30.5 728.5,-36.5 728.5,-42.5 728.5,-42.5 728.5,-139.5 728.5,-139.5 728.5,-145.5 722.5,-151.5 716.5,-151.5 716.5,-151.5 609.5,-151.5 609.5,-151.5 603.5,-151.5 597.5,-145.5 597.5,-139.5 597.5,-139.5 597.5,-42.5 597.5,-42.5 597.5,-36.5 603.5,-30.5 609.5,-30.5"/>
<text text-anchor="middle" x="663" y="-136.3" font-family="Times,serif" font-size="14.00">Rol</text>
<polyline fill="none" stroke="black" points="597.5,-128.5 728.5,-128.5 "/>
<text text-anchor="start" x="605.5" y="-113.3" font-family="Times,serif" font-size="14.00">id :INTEGER</text>
<text text-anchor="start" x="605.5" y="-98.3" font-family="Times,serif" font-size="14.00">created_at :datetime</text>
<text text-anchor="start" x="605.5" y="-83.3" font-family="Times,serif" font-size="14.00">updated_at :datetime</text>
<text text-anchor="start" x="605.5" y="-68.3" font-family="Times,serif" font-size="14.00">proyecto_id :integer</text>
<text text-anchor="start" x="605.5" y="-53.3" font-family="Times,serif" font-size="14.00">recurso_id :integer</text>
<text text-anchor="start" x="605.5" y="-38.3" font-family="Times,serif" font-size="14.00">papel :varchar</text>
</g>
<!-- Recurso&#45;&gt;Rol -->
<g id="edge12" class="edge"><title>Recurso&#45;&gt;Rol</title>
<path fill="none" stroke="#80c4b9" d="M779.592,-443.356C715.862,-419.489 632.342,-386.136 623,-372 581.559,-309.297 603.972,-221.479 628.697,-160.994"/>
<ellipse fill="none" stroke="#80c4b9" cx="783.511" cy="-444.819" rx="4.00001" ry="4.00001"/>
<polygon fill="#80c4b9" stroke="#80c4b9" points="628.801,-160.748 636.824,-153.273 630.738,-156.138 632.676,-151.529 632.676,-151.529 632.676,-151.529 630.738,-156.138 628.528,-149.785 628.801,-160.748 628.801,-160.748"/>
</g>
<!-- Activo -->
<g id="node16" class="node"><title>Activo</title>
<path fill="none" stroke="black" d="M797.5,-235.5C797.5,-235.5 908.5,-235.5 908.5,-235.5 914.5,-235.5 920.5,-241.5 920.5,-247.5 920.5,-247.5 920.5,-344.5 920.5,-344.5 920.5,-350.5 914.5,-356.5 908.5,-356.5 908.5,-356.5 797.5,-356.5 797.5,-356.5 791.5,-356.5 785.5,-350.5 785.5,-344.5 785.5,-344.5 785.5,-247.5 785.5,-247.5 785.5,-241.5 791.5,-235.5 797.5,-235.5"/>
<text text-anchor="middle" x="853" y="-341.3" font-family="Times,serif" font-size="14.00">Activo</text>
<polyline fill="none" stroke="black" points="785.5,-333.5 920.5,-333.5 "/>
<text text-anchor="start" x="793.5" y="-318.3" font-family="Times,serif" font-size="14.00">id :INTEGER</text>
<text text-anchor="start" x="793.5" y="-303.3" font-family="Times,serif" font-size="14.00">created_at :datetime</text>
<text text-anchor="start" x="793.5" y="-288.3" font-family="Times,serif" font-size="14.00">updated_at :datetime</text>
<text text-anchor="start" x="793.5" y="-273.3" font-family="Times,serif" font-size="14.00">entregable_id :integer</text>
<text text-anchor="start" x="793.5" y="-258.3" font-family="Times,serif" font-size="14.00">recurso_id :integer</text>
<text text-anchor="start" x="793.5" y="-243.3" font-family="Times,serif" font-size="14.00">estado :boolean</text>
</g>
<!-- Recurso&#45;&gt;Activo -->
<g id="edge14" class="edge"><title>Recurso&#45;&gt;Activo</title>
<path fill="none" stroke="#7b4fce" d="M853,-402.202C853,-390.57 853,-378.464 853,-366.782"/>
<ellipse fill="none" stroke="#7b4fce" cx="853" cy="-406.463" rx="4" ry="4"/>
<polygon fill="#7b4fce" stroke="#7b4fce" points="853,-366.647 857.5,-356.646 853,-361.647 853,-356.647 853,-356.647 853,-356.647 853,-361.647 848.5,-356.647 853,-366.647 853,-366.647"/>
</g>
<!-- Habilidad -->
<g id="node20" class="node"><title>Habilidad</title>
<path fill="none" stroke="black" d="M950.5,-243C950.5,-243 1057.5,-243 1057.5,-243 1063.5,-243 1069.5,-249 1069.5,-255 1069.5,-255 1069.5,-337 1069.5,-337 1069.5,-343 1063.5,-349 1057.5,-349 1057.5,-349 950.5,-349 950.5,-349 944.5,-349 938.5,-343 938.5,-337 938.5,-337 938.5,-255 938.5,-255 938.5,-249 944.5,-243 950.5,-243"/>
<text text-anchor="middle" x="1004" y="-333.8" font-family="Times,serif" font-size="14.00">Habilidad</text>
<polyline fill="none" stroke="black" points="938.5,-326 1069.5,-326 "/>
<text text-anchor="start" x="946.5" y="-310.8" font-family="Times,serif" font-size="14.00">id :INTEGER</text>
<text text-anchor="start" x="946.5" y="-295.8" font-family="Times,serif" font-size="14.00">descripcion :varchar</text>
<text text-anchor="start" x="946.5" y="-280.8" font-family="Times,serif" font-size="14.00">recurso_id :integer</text>
<text text-anchor="start" x="946.5" y="-265.8" font-family="Times,serif" font-size="14.00">created_at :datetime</text>
<text text-anchor="start" x="946.5" y="-250.8" font-family="Times,serif" font-size="14.00">updated_at :datetime</text>
</g>
<!-- Recurso&#45;&gt;Habilidad -->
<g id="edge11" class="edge"><title>Recurso&#45;&gt;Habilidad</title>
<path fill="none" stroke="#2a407f" d="M910.321,-404.327C923.891,-388.781 938.293,-372.28 951.63,-357"/>
<ellipse fill="none" stroke="#2a407f" cx="907.596" cy="-407.45" rx="4.00002" ry="4.00002"/>
<polygon fill="#2a407f" stroke="#2a407f" points="951.921,-356.667 961.887,-352.092 955.209,-352.9 958.497,-349.133 958.497,-349.133 958.497,-349.133 955.209,-352.9 955.106,-346.174 951.921,-356.667 951.921,-356.667"/>
</g>
<!-- Recurso&#45;&gt;Proyecto -->
<g id="edge13" class="edge"><title>Recurso&#45;&gt;Proyecto</title>
<path fill="none" stroke="#5d0743" d="M777.699,-440.942C748.159,-430.24 713.779,-418.636 682,-410 641.794,-399.074 625.905,-413.137 590,-392 583.613,-388.24 577.498,-383.777 571.699,-378.867"/>
<polygon fill="#5d0743" stroke="#5d0743" points="777.718,-440.949 785.567,-448.607 782.414,-442.665 787.111,-444.38 787.111,-444.38 787.111,-444.38 782.414,-442.665 788.655,-440.153 777.718,-440.949 777.718,-440.949"/>
<polygon fill="#5d0743" stroke="#5d0743" points="571.418,-378.614 567.002,-368.576 567.703,-375.267 563.989,-371.919 563.989,-371.919 563.989,-371.919 567.703,-375.267 560.976,-375.262 571.418,-378.614 571.418,-378.614"/>
</g>
<!-- Entregable -->
<g id="node22" class="node"><title>Entregable</title>
<ellipse fill="none" stroke="black" cx="1247" cy="-91" rx="48.6179" ry="18"/>
<text text-anchor="middle" x="1247" y="-87.3" font-family="Times,serif" font-size="14.00">Entregable</text>
</g>
<!-- Recurso&#45;&gt;Entregable -->
<g id="edge15" class="edge"><title>Recurso&#45;&gt;Entregable</title>
<path fill="none" stroke="#374041" d="M928.654,-460.59C1026.61,-446.731 1189.26,-417.451 1227,-372 1288,-298.531 1267.34,-173.499 1254.29,-118.874"/>
<polygon fill="#374041" stroke="#374041" points="928.411,-460.624 917.886,-457.546 923.459,-461.313 918.507,-462.003 918.507,-462.003 918.507,-462.003 923.459,-461.313 919.127,-466.46 928.411,-460.624 928.411,-460.624"/>
<polygon fill="#374041" stroke="#374041" points="1254.23,-118.626 1256.17,-107.834 1253.01,-113.775 1251.8,-108.924 1251.8,-108.924 1251.8,-108.924 1253.01,-113.775 1247.44,-110.013 1254.23,-118.626 1254.23,-118.626"/>
</g>
<!-- Recurso&#45;&gt;Entregable -->
<g id="edge17" class="edge"><title>Recurso&#45;&gt;Entregable</title>
<path fill="none" stroke="#55b6cc" d="M928.993,-463.269C1036,-451.983 1222.38,-425.07 1261,-372 1317.09,-294.911 1279.15,-171.867 1258.24,-118.323"/>
<polygon fill="#55b6cc" stroke="#55b6cc" points="928.84,-463.285 918.43,-459.837 923.866,-463.799 918.893,-464.313 918.893,-464.313 918.893,-464.313 923.866,-463.799 919.355,-468.789 928.84,-463.285 928.84,-463.285"/>
<polygon fill="#55b6cc" stroke="#55b6cc" points="1258.16,-118.145 1258.61,-107.188 1256.3,-113.506 1254.43,-108.867 1254.43,-108.867 1254.43,-108.867 1256.3,-113.506 1250.26,-110.546 1258.16,-118.145 1258.16,-118.145"/>
<text text-anchor="middle" x="1319" y="-292.3" font-family="Times,serif" font-size="14.00">reportados</text>
</g>
<!-- Riesgo -->
<g id="node18" class="node"><title>Riesgo</title>
<path fill="none" stroke="black" d="M11.5,-30.5C11.5,-30.5 118.5,-30.5 118.5,-30.5 124.5,-30.5 130.5,-36.5 130.5,-42.5 130.5,-42.5 130.5,-139.5 130.5,-139.5 130.5,-145.5 124.5,-151.5 118.5,-151.5 118.5,-151.5 11.5,-151.5 11.5,-151.5 5.5,-151.5 -0.5,-145.5 -0.5,-139.5 -0.5,-139.5 -0.5,-42.5 -0.5,-42.5 -0.5,-36.5 5.5,-30.5 11.5,-30.5"/>
<text text-anchor="middle" x="65" y="-136.3" font-family="Times,serif" font-size="14.00">Riesgo</text>
<polyline fill="none" stroke="black" points="-0.5,-128.5 130.5,-128.5 "/>
<text text-anchor="start" x="7.5" y="-113.3" font-family="Times,serif" font-size="14.00">id :INTEGER</text>
<text text-anchor="start" x="7.5" y="-98.3" font-family="Times,serif" font-size="14.00">tipo :varchar</text>
<text text-anchor="start" x="7.5" y="-83.3" font-family="Times,serif" font-size="14.00">descripcion :varchar</text>
<text text-anchor="start" x="7.5" y="-68.3" font-family="Times,serif" font-size="14.00">proyecto_id :integer</text>
<text text-anchor="start" x="7.5" y="-53.3" font-family="Times,serif" font-size="14.00">created_at :datetime</text>
<text text-anchor="start" x="7.5" y="-38.3" font-family="Times,serif" font-size="14.00">updated_at :datetime</text>
</g>
<!-- Cliente&#45;&gt;Portafolio -->
<g id="edge18" class="edge"><title>Cliente&#45;&gt;Portafolio</title>
<path fill="none" stroke="#38aecf" d="M636.124,-1031.66C630.371,-942.101 619.634,-774.974 613.879,-685.391"/>
<ellipse fill="none" stroke="#38aecf" cx="636.389" cy="-1035.8" rx="4" ry="4"/>
<ellipse fill="#38aecf" stroke="#38aecf" cx="613.612" cy="-681.224" rx="4" ry="4"/>
</g>
<!-- Proyecto&#45;&gt;Documento -->
<g id="edge24" class="edge"><title>Proyecto&#45;&gt;Documento</title>
<path fill="none" stroke="#4b22ab" d="M436.65,-266.796C391.091,-247.154 332.873,-218.046 288,-182 287.29,-181.43 286.583,-180.852 285.877,-180.267"/>
<ellipse fill="none" stroke="#4b22ab" cx="440.457" cy="-268.419" rx="4.00002" ry="4.00002"/>
<ellipse fill="#4b22ab" stroke="#4b22ab" cx="282.615" cy="-177.436" rx="4.00002" ry="4.00002"/>
</g>
<!-- Proyecto&#45;&gt;Material -->
<g id="edge20" class="edge"><title>Proyecto&#45;&gt;Material</title>
<path fill="none" stroke="#ca2f7b" d="M451.095,-213.655C441.857,-200.897 432.298,-187.697 423.035,-174.905"/>
<ellipse fill="none" stroke="#ca2f7b" cx="453.543" cy="-217.035" rx="4.00002" ry="4.00002"/>
<polygon fill="#ca2f7b" stroke="#ca2f7b" points="422.862,-174.666 420.641,-163.928 419.929,-170.617 416.997,-166.567 416.997,-166.567 416.997,-166.567 419.929,-170.617 413.352,-169.206 422.862,-174.666 422.862,-174.666"/>
</g>
<!-- Proyecto&#45;&gt;Alianza -->
<g id="edge21" class="edge"><title>Proyecto&#45;&gt;Alianza</title>
<path fill="none" stroke="#ea76ae" d="M511.227,-211.986C511.399,-200.354 511.576,-188.386 511.748,-176.722"/>
<ellipse fill="none" stroke="#ea76ae" cx="511.163" cy="-216.276" rx="4" ry="4"/>
<polygon fill="#ea76ae" stroke="#ea76ae" points="511.75,-176.566 516.398,-166.633 511.824,-171.566 511.898,-166.567 511.898,-166.567 511.898,-166.567 511.824,-171.566 507.399,-166.5 511.75,-176.566 511.75,-176.566"/>
</g>
<!-- Proyecto&#45;&gt;Rol -->
<g id="edge23" class="edge"><title>Proyecto&#45;&gt;Rol</title>
<path fill="none" stroke="#86f1b6" d="M552.088,-213.617C555.557,-208.849 559.199,-204.265 563,-200 572.108,-189.778 577.982,-191.333 588,-182 595.478,-175.033 602.91,-167.334 610.026,-159.457"/>
<ellipse fill="none" stroke="#86f1b6" cx="549.761" cy="-216.942" rx="4.00002" ry="4.00002"/>
<polygon fill="#86f1b6" stroke="#86f1b6" points="610.401,-159.033 620.397,-154.525 613.714,-155.288 617.026,-151.543 617.026,-151.543 617.026,-151.543 613.714,-155.288 613.656,-148.562 610.401,-159.033 610.401,-159.033"/>
</g>
<!-- Proyecto&#45;&gt;Riesgo -->
<g id="edge19" class="edge"><title>Proyecto&#45;&gt;Riesgo</title>
<path fill="none" stroke="#47c417" d="M436.429,-285.507C357.42,-272.516 230.871,-243.4 139,-182 129.504,-175.654 120.598,-167.729 112.482,-159.231"/>
<ellipse fill="none" stroke="#47c417" cx="440.449" cy="-286.154" rx="4.00001" ry="4.00001"/>
<polygon fill="#47c417" stroke="#47c417" points="112.298,-159.029 108.884,-148.608 108.928,-155.334 105.559,-151.64 105.559,-151.64 105.559,-151.64 108.928,-155.334 102.234,-154.673 112.298,-159.029 112.298,-159.029"/>
</g>
<!-- Proyecto&#45;&gt;Entregable -->
<g id="edge22" class="edge"><title>Proyecto&#45;&gt;Entregable</title>
<path fill="none" stroke="#3340af" d="M582.832,-240.891C595.751,-232.999 609.426,-225.646 623,-220 727.14,-176.688 1061.48,-121.134 1193.07,-100.344"/>
<ellipse fill="none" stroke="#3340af" cx="579.131" cy="-243.203" rx="4.00002" ry="4.00002"/>
<polygon fill="#3340af" stroke="#3340af" points="1193.42,-100.288 1204,-103.177 1198.36,-99.5098 1203.3,-98.7321 1203.3,-98.7321 1203.3,-98.7321 1198.36,-99.5098 1202.6,-94.2869 1193.42,-100.288 1193.42,-100.288"/>
</g>
</g>
</svg>
