<?xml version="1.0" encoding="UTF-8" standalone="no"?>
<!DOCTYPE svg PUBLIC "-//W3C//DTD SVG 1.1//EN"
 "http://www.w3.org/Graphics/SVG/1.1/DTD/svg11.dtd">
<!-- Generated by graphviz version 2.36.0 (20140111.2315)
 -->
<!-- Title: models_diagram Pages: 1 -->
<svg width="811pt" height="564pt"
 viewBox="0.00 0.00 810.82 564.00" xmlns="http://www.w3.org/2000/svg" xmlns:xlink="http://www.w3.org/1999/xlink">
<g id="graph0" class="graph" transform="scale(1 1) rotate(0) translate(4 560)">
<title>models_diagram</title>
<polygon fill="none" stroke="none" points="-4,4 -4,-560 806.824,-560 806.824,4 -4,4"/>
<!-- _diagram_info -->
<g id="node1" class="node"><title>_diagram_info</title>
<text text-anchor="start" x="63" y="-541.6" font-family="Times,serif" font-size="13.00">Models diagram</text>
<text text-anchor="start" x="63" y="-527.6" font-family="Times,serif" font-size="13.00">Date: Dec 06 2015 &#45; 20:44</text>
<text text-anchor="start" x="63" y="-513.6" font-family="Times,serif" font-size="13.00">Migration version: 20151204221644</text>
<text text-anchor="start" x="63" y="-499.6" font-family="Times,serif" font-size="13.00">Generated by RailRoady 1.4.1</text>
<text text-anchor="start" x="63" y="-485.6" font-family="Times,serif" font-size="13.00">http://railroady.prestonlee.com</text>
</g>
<!-- Direccion -->
<g id="node2" class="node"><title>Direccion</title>
<ellipse fill="none" stroke="black" cx="89" cy="-422" rx="45.244" ry="18"/>
<text text-anchor="middle" x="89" y="-418.3" font-family="Times,serif" font-size="14.00">Direccion</text>
</g>
<!-- Portafolio -->
<g id="node3" class="node"><title>Portafolio</title>
<ellipse fill="none" stroke="black" cx="434" cy="-314" rx="46.2191" ry="18"/>
<text text-anchor="middle" x="434" y="-310.3" font-family="Times,serif" font-size="14.00">Portafolio</text>
</g>
<!-- Hoja -->
<g id="node11" class="node"><title>Hoja</title>
<ellipse fill="none" stroke="black" cx="642" cy="-240" rx="27.4223" ry="18"/>
<text text-anchor="middle" x="642" y="-236.3" font-family="Times,serif" font-size="14.00">Hoja</text>
</g>
<!-- Portafolio&#45;&gt;Hoja -->
<g id="edge1" class="edge"><title>Portafolio&#45;&gt;Hoja</title>
<path fill="none" stroke="#d792a7" d="M475.138,-298.76C514.282,-285.21 572.442,-265.078 608.743,-252.512"/>
<ellipse fill="none" stroke="#d792a7" cx="471.199" cy="-300.123" rx="4.00001" ry="4.00001"/>
<polygon fill="#d792a7" stroke="#d792a7" points="608.918,-252.452 619.84,-253.433 613.643,-250.816 618.368,-249.18 618.368,-249.18 618.368,-249.18 613.643,-250.816 616.896,-244.928 608.918,-252.452 608.918,-252.452"/>
</g>
<!-- Bitacora -->
<g id="node4" class="node"><title>Bitacora</title>
<ellipse fill="none" stroke="black" cx="176" cy="-18" rx="39.9464" ry="18"/>
<text text-anchor="middle" x="176" y="-14.3" font-family="Times,serif" font-size="14.00">Bitacora</text>
</g>
<!-- Documento -->
<g id="node5" class="node"><title>Documento</title>
<ellipse fill="none" stroke="black" cx="621" cy="-92" rx="51.4931" ry="18"/>
<text text-anchor="middle" x="621" y="-88.3" font-family="Times,serif" font-size="14.00">Documento</text>
</g>
<!-- Juridica -->
<g id="node6" class="node"><title>Juridica</title>
<ellipse fill="none" stroke="black" cx="191" cy="-422" rx="38.0212" ry="18"/>
<text text-anchor="middle" x="191" y="-418.3" font-family="Times,serif" font-size="14.00">Juridica</text>
</g>
<!-- Telefono -->
<g id="node7" class="node"><title>Telefono</title>
<ellipse fill="none" stroke="black" cx="290" cy="-422" rx="42.3701" ry="18"/>
<text text-anchor="middle" x="290" y="-418.3" font-family="Times,serif" font-size="14.00">Telefono</text>
</g>
<!-- Persona -->
<g id="node8" class="node"><title>Persona</title>
<ellipse fill="none" stroke="black" cx="325" cy="-517" rx="38.0212" ry="18"/>
<text text-anchor="middle" x="325" y="-513.3" font-family="Times,serif" font-size="14.00">Persona</text>
</g>
<!-- Persona&#45;&gt;Direccion -->
<g id="edge4" class="edge"><title>Persona&#45;&gt;Direccion</title>
<path fill="none" stroke="#6eaa0b" d="M302.66,-495.345C294.969,-489.072 286.014,-482.624 277,-478 222.3,-449.941 202.926,-457.523 144,-440 140.488,-438.956 136.855,-437.862 133.206,-436.754"/>
<ellipse fill="none" stroke="#6eaa0b" cx="305.742" cy="-497.948" rx="4.00002" ry="4.00002"/>
<polygon fill="#6eaa0b" stroke="#6eaa0b" points="133.149,-436.737 124.901,-429.511 128.368,-435.276 123.586,-433.814 123.586,-433.814 123.586,-433.814 128.368,-435.276 122.271,-438.118 133.149,-436.737 133.149,-436.737"/>
</g>
<!-- Persona&#45;&gt;Juridica -->
<g id="edge2" class="edge"><title>Persona&#45;&gt;Juridica</title>
<path fill="none" stroke="#fc2db5" d="M300.158,-495.558C292.817,-489.73 284.686,-483.479 277,-478 258.69,-464.948 237.406,-451.323 220.592,-440.9"/>
<ellipse fill="none" stroke="#fc2db5" cx="303.522" cy="-498.255" rx="4.00002" ry="4.00002"/>
<ellipse fill="#fc2db5" stroke="#fc2db5" cx="217.087" cy="-438.739" rx="4.00002" ry="4.00002"/>
</g>
<!-- Persona&#45;&gt;Telefono -->
<g id="edge5" class="edge"><title>Persona&#45;&gt;Telefono</title>
<path fill="none" stroke="#4c8b42" d="M315.74,-491.396C310.875,-478.467 304.907,-462.611 299.944,-449.423"/>
<ellipse fill="none" stroke="#4c8b42" cx="317.172" cy="-495.199" rx="4.00001" ry="4.00001"/>
<polygon fill="#4c8b42" stroke="#4c8b42" points="299.901,-449.309 300.59,-438.364 298.14,-444.629 296.379,-439.949 296.379,-439.949 296.379,-439.949 298.14,-444.629 292.167,-441.535 299.901,-449.309 299.901,-449.309"/>
</g>
<!-- Fisica -->
<g id="node12" class="node"><title>Fisica</title>
<ellipse fill="none" stroke="black" cx="355" cy="-368" rx="31.2735" ry="18"/>
<text text-anchor="middle" x="355" y="-364.3" font-family="Times,serif" font-size="14.00">Fisica</text>
</g>
<!-- Persona&#45;&gt;Fisica -->
<g id="edge3" class="edge"><title>Persona&#45;&gt;Fisica</title>
<path fill="none" stroke="#92b302" d="M330.422,-490.648C333.559,-475.881 337.555,-456.898 341,-440 344.117,-424.708 347.506,-407.539 350.168,-393.916"/>
<ellipse fill="none" stroke="#92b302" cx="329.518" cy="-494.896" rx="4.00001" ry="4.00001"/>
<ellipse fill="#92b302" stroke="#92b302" cx="350.958" cy="-389.866" rx="4.00001" ry="4.00001"/>
</g>
<!-- User -->
<g id="node17" class="node"><title>User</title>
<ellipse fill="none" stroke="black" cx="506" cy="-422" rx="26.949" ry="18"/>
<text text-anchor="middle" x="506" y="-418.3" font-family="Times,serif" font-size="14.00">User</text>
</g>
<!-- Persona&#45;&gt;User -->
<g id="edge7" class="edge"><title>Persona&#45;&gt;User</title>
<path fill="none" stroke="#05390b" d="M357.322,-499.393C391.57,-481.796 445.112,-454.285 477.735,-437.523"/>
<ellipse fill="none" stroke="#05390b" cx="353.346" cy="-501.436" rx="4.00002" ry="4.00002"/>
<ellipse fill="#05390b" stroke="#05390b" cx="481.598" cy="-435.538" rx="4.00002" ry="4.00002"/>
</g>
<!-- Cliente -->
<g id="node19" class="node"><title>Cliente</title>
<ellipse fill="none" stroke="black" cx="424" cy="-422" rx="36.096" ry="18"/>
<text text-anchor="middle" x="424" y="-418.3" font-family="Times,serif" font-size="14.00">Cliente</text>
</g>
<!-- Persona&#45;&gt;Cliente -->
<g id="edge6" class="edge"><title>Persona&#45;&gt;Cliente</title>
<path fill="none" stroke="#42e2b4" d="M347.261,-495.088C363.437,-479.892 385.249,-459.403 401.484,-444.152"/>
<ellipse fill="none" stroke="#42e2b4" cx="344.263" cy="-497.904" rx="4.00002" ry="4.00002"/>
<ellipse fill="#42e2b4" stroke="#42e2b4" cx="404.712" cy="-441.119" rx="4.00002" ry="4.00002"/>
</g>
<!-- Certificacion -->
<g id="node9" class="node"><title>Certificacion</title>
<ellipse fill="none" stroke="black" cx="293" cy="-166" rx="56.3173" ry="18"/>
<text text-anchor="middle" x="293" y="-162.3" font-family="Times,serif" font-size="14.00">Certificacion</text>
</g>
<!-- Material -->
<g id="node10" class="node"><title>Material</title>
<ellipse fill="none" stroke="black" cx="732" cy="-92" rx="40.4202" ry="18"/>
<text text-anchor="middle" x="732" y="-88.3" font-family="Times,serif" font-size="14.00">Material</text>
</g>
<!-- Proyecto -->
<g id="node22" class="node"><title>Proyecto</title>
<ellipse fill="none" stroke="black" cx="556" cy="-166" rx="42.3701" ry="18"/>
<text text-anchor="middle" x="556" y="-162.3" font-family="Times,serif" font-size="14.00">Proyecto</text>
</g>
<!-- Hoja&#45;&gt;Proyecto -->
<g id="edge8" class="edge"><title>Hoja&#45;&gt;Proyecto</title>
<path fill="none" stroke="#8d5539" d="M619.261,-219.963C607.416,-210.046 592.911,-197.903 580.781,-187.747"/>
<ellipse fill="none" stroke="#8d5539" cx="622.351" cy="-222.55" rx="4.00002" ry="4.00002"/>
<ellipse fill="#8d5539" stroke="#8d5539" cx="577.384" cy="-184.903" rx="4.00002" ry="4.00002"/>
</g>
<!-- Recurso -->
<g id="node14" class="node"><title>Recurso</title>
<ellipse fill="none" stroke="black" cx="353" cy="-240" rx="39.4691" ry="18"/>
<text text-anchor="middle" x="353" y="-236.3" font-family="Times,serif" font-size="14.00">Recurso</text>
</g>
<!-- Fisica&#45;&gt;Recurso -->
<g id="edge9" class="edge"><title>Fisica&#45;&gt;Recurso</title>
<path fill="none" stroke="#32f354" d="M354.595,-341.507C354.247,-319.56 353.747,-288.061 353.4,-266.199"/>
<ellipse fill="none" stroke="#32f354" cx="354.663" cy="-345.745" rx="4" ry="4"/>
<ellipse fill="#32f354" stroke="#32f354" cx="353.334" cy="-262.047" rx="4" ry="4"/>
</g>
<!-- Alianza -->
<g id="node13" class="node"><title>Alianza</title>
<ellipse fill="none" stroke="black" cx="425" cy="-92" rx="38.0212" ry="18"/>
<text text-anchor="middle" x="425" y="-88.3" font-family="Times,serif" font-size="14.00">Alianza</text>
</g>
<!-- Recurso&#45;&gt;Bitacora -->
<g id="edge16" class="edge"><title>Recurso&#45;&gt;Bitacora</title>
<path fill="none" stroke="#ecb6f1" d="M400.223,-236.905C533.174,-229.441 893.828,-197.55 781,-74 743.916,-33.3922 365.685,-22.4452 226.795,-19.7826"/>
<ellipse fill="none" stroke="#ecb6f1" cx="396.172" cy="-237.125" rx="4" ry="4"/>
<polygon fill="#ecb6f1" stroke="#ecb6f1" points="226.436,-19.776 216.521,-15.0917 221.437,-19.6835 216.438,-19.591 216.438,-19.591 216.438,-19.591 221.437,-19.6835 216.354,-24.0902 226.436,-19.776 226.436,-19.776"/>
</g>
<!-- Recurso&#45;&gt;Certificacion -->
<g id="edge10" class="edge"><title>Recurso&#45;&gt;Certificacion</title>
<path fill="none" stroke="#ecc7ac" d="M334.394,-216.672C327.736,-208.684 320.2,-199.64 313.4,-191.48"/>
<ellipse fill="none" stroke="#ecc7ac" cx="337.123" cy="-219.948" rx="4.00002" ry="4.00002"/>
<polygon fill="#ecc7ac" stroke="#ecc7ac" points="313.306,-191.367 310.361,-180.804 310.105,-187.526 306.904,-183.685 306.904,-183.685 306.904,-183.685 310.105,-187.526 303.447,-186.566 313.306,-191.367 313.306,-191.367"/>
</g>
<!-- Rol -->
<g id="node15" class="node"><title>Rol</title>
<ellipse fill="none" stroke="black" cx="342" cy="-92" rx="27" ry="18"/>
<text text-anchor="middle" x="342" y="-88.3" font-family="Times,serif" font-size="14.00">Rol</text>
</g>
<!-- Recurso&#45;&gt;Rol -->
<g id="edge12" class="edge"><title>Recurso&#45;&gt;Rol</title>
<path fill="none" stroke="#087640" d="M396.621,-230.035C421.866,-222.367 451.606,-208.518 467,-184 475.508,-170.449 475.817,-161.351 467,-148 443.299,-112.109 417.231,-127.63 378,-110 376.203,-109.193 374.36,-108.354 372.504,-107.502"/>
<ellipse fill="none" stroke="#087640" cx="392.454" cy="-231.219" rx="4.00001" ry="4.00001"/>
<polygon fill="#087640" stroke="#087640" points="372.326,-107.419 365.157,-99.121 367.792,-105.31 363.259,-103.201 363.259,-103.201 363.259,-103.201 367.792,-105.31 361.361,-107.281 372.326,-107.419 372.326,-107.419"/>
</g>
<!-- Activo -->
<g id="node16" class="node"><title>Activo</title>
<ellipse fill="none" stroke="black" cx="34" cy="-18" rx="34.1708" ry="18"/>
<text text-anchor="middle" x="34" y="-14.3" font-family="Times,serif" font-size="14.00">Activo</text>
</g>
<!-- Recurso&#45;&gt;Activo -->
<g id="edge14" class="edge"><title>Recurso&#45;&gt;Activo</title>
<path fill="none" stroke="#123773" d="M305.539,-237.727C231.652,-235.049 93.1183,-227.035 50,-204 -3.30674,-175.522 12.88,-89.5427 25.366,-45.5512"/>
<ellipse fill="none" stroke="#123773" cx="309.787" cy="-237.874" rx="4" ry="4"/>
<polygon fill="#123773" stroke="#123773" points="25.4062,-45.416 32.5728,-37.116 26.8331,-40.6239 28.2599,-35.8318 28.2599,-35.8318 28.2599,-35.8318 26.8331,-40.6239 23.9471,-34.5477 25.4062,-45.416 25.4062,-45.416"/>
</g>
<!-- Habilidad -->
<g id="node20" class="node"><title>Habilidad</title>
<ellipse fill="none" stroke="black" cx="413" cy="-166" rx="45.244" ry="18"/>
<text text-anchor="middle" x="413" y="-162.3" font-family="Times,serif" font-size="14.00">Habilidad</text>
</g>
<!-- Recurso&#45;&gt;Habilidad -->
<g id="edge11" class="edge"><title>Recurso&#45;&gt;Habilidad</title>
<path fill="none" stroke="#889660" d="M371.685,-216.578C378.443,-208.468 386.1,-199.28 392.969,-191.037"/>
<ellipse fill="none" stroke="#889660" cx="368.877" cy="-219.948" rx="4.00002" ry="4.00002"/>
<polygon fill="#889660" stroke="#889660" points="393.112,-190.866 402.971,-186.064 396.313,-187.025 399.514,-183.183 399.514,-183.183 399.514,-183.183 396.313,-187.025 396.057,-180.303 393.112,-190.866 393.112,-190.866"/>
</g>
<!-- Entregable -->
<g id="node21" class="node"><title>Entregable</title>
<ellipse fill="none" stroke="black" cx="121" cy="-92" rx="48.6179" ry="18"/>
<text text-anchor="middle" x="121" y="-88.3" font-family="Times,serif" font-size="14.00">Entregable</text>
</g>
<!-- Recurso&#45;&gt;Entregable -->
<g id="edge15" class="edge"><title>Recurso&#45;&gt;Entregable</title>
<path fill="none" stroke="#1858bb" d="M303.522,-239.157C229.062,-238.422 92.8685,-233.004 55,-204 28.1839,-183.461 32.428,-153.129 55,-128 61.5612,-120.696 70.0135,-114.651 78.6646,-109.759"/>
<polygon fill="#1858bb" stroke="#1858bb" points="303.602,-239.157 313.569,-243.731 308.602,-239.194 313.602,-239.231 313.602,-239.231 313.602,-239.231 308.602,-239.194 313.636,-234.731 303.602,-239.157 303.602,-239.157"/>
<polygon fill="#1858bb" stroke="#1858bb" points="78.8073,-109.685 89.7558,-109.067 83.2442,-107.38 87.681,-105.074 87.681,-105.074 87.681,-105.074 83.2442,-107.38 85.6063,-101.081 78.8073,-109.685 78.8073,-109.685"/>
</g>
<!-- Recurso&#45;&gt;Entregable -->
<g id="edge17" class="edge"><title>Recurso&#45;&gt;Entregable</title>
<path fill="none" stroke="#385e2c" d="M304.086,-236.583C233.542,-231.915 108.842,-218.833 83,-184 67.9156,-163.667 82.937,-136.461 98.317,-117.106"/>
<polygon fill="#385e2c" stroke="#385e2c" points="304.103,-236.584 313.8,-241.703 309.093,-236.898 314.083,-237.212 314.083,-237.212 314.083,-237.212 309.093,-236.898 314.366,-232.721 304.103,-236.584 304.103,-236.584"/>
<polygon fill="#385e2c" stroke="#385e2c" points="98.4123,-116.993 108.29,-112.229 101.628,-113.164 104.844,-109.335 104.844,-109.335 104.844,-109.335 101.628,-113.164 101.398,-106.441 98.4123,-116.993 98.4123,-116.993"/>
<text text-anchor="middle" x="112" y="-162.3" font-family="Times,serif" font-size="14.00">reportados</text>
</g>
<!-- Recurso&#45;&gt;Proyecto -->
<g id="edge13" class="edge"><title>Recurso&#45;&gt;Proyecto</title>
<path fill="none" stroke="#fc8ab2" d="M400.131,-232.111C429.651,-226.753 468.023,-217.853 500,-204 509.784,-199.762 519.727,-193.826 528.467,-187.948"/>
<polygon fill="#fc8ab2" stroke="#fc8ab2" points="399.935,-232.145 389.311,-229.427 395.009,-233.003 390.083,-233.86 390.083,-233.86 390.083,-233.86 395.009,-233.003 390.855,-238.294 399.935,-232.145 399.935,-232.145"/>
<polygon fill="#fc8ab2" stroke="#fc8ab2" points="528.559,-187.884 539.333,-185.843 532.657,-185.02 536.755,-182.155 536.755,-182.155 536.755,-182.155 532.657,-185.02 534.177,-178.467 528.559,-187.884 528.559,-187.884"/>
</g>
<!-- Riesgo -->
<g id="node18" class="node"><title>Riesgo</title>
<ellipse fill="none" stroke="black" cx="516" cy="-92" rx="35.1455" ry="18"/>
<text text-anchor="middle" x="516" y="-88.3" font-family="Times,serif" font-size="14.00">Riesgo</text>
</g>
<!-- Cliente&#45;&gt;Portafolio -->
<g id="edge18" class="edge"><title>Cliente&#45;&gt;Portafolio</title>
<path fill="none" stroke="#f7e66d" d="M426.378,-395.795C427.951,-379.123 430.006,-357.335 431.586,-340.586"/>
<ellipse fill="none" stroke="#f7e66d" cx="425.982" cy="-399.987" rx="4" ry="4"/>
<ellipse fill="#f7e66d" stroke="#f7e66d" cx="431.988" cy="-336.323" rx="4" ry="4"/>
</g>
<!-- Entregable&#45;&gt;Bitacora -->
<g id="edge20" class="edge"><title>Entregable&#45;&gt;Bitacora</title>
<path fill="none" stroke="#e4ee5b" d="M138.795,-67.7052C144.665,-60.0206 151.212,-51.45 157.158,-43.6665"/>
<ellipse fill="none" stroke="#e4ee5b" cx="136.185" cy="-71.1221" rx="4.00002" ry="4.00002"/>
<polygon fill="#e4ee5b" stroke="#e4ee5b" points="157.242,-43.5554 166.889,-38.3404 160.278,-39.582 163.313,-35.6087 163.313,-35.6087 163.313,-35.6087 160.278,-39.582 159.737,-32.877 157.242,-43.5554 157.242,-43.5554"/>
</g>
<!-- Entregable&#45;&gt;Recurso -->
<g id="edge21" class="edge"><title>Entregable&#45;&gt;Recurso</title>
<path fill="none" stroke="#cb9046" d="M129.699,-119.666C137.654,-140.051 151.358,-167.393 172,-184 210.135,-214.68 265.208,-228.279 304.576,-234.286"/>
<polygon fill="#cb9046" stroke="#cb9046" points="129.602,-119.401 130.377,-108.463 127.877,-114.708 126.153,-110.014 126.153,-110.014 126.153,-110.014 127.877,-114.708 121.929,-111.566 129.602,-119.401 129.602,-119.401"/>
<polygon fill="#cb9046" stroke="#cb9046" points="304.577,-234.286 313.847,-240.145 309.527,-234.988 314.478,-235.689 314.478,-235.689 314.478,-235.689 309.527,-234.988 315.109,-231.233 304.577,-234.286 304.577,-234.286"/>
<text text-anchor="middle" x="199.5" y="-162.3" font-family="Times,serif" font-size="14.00">reporteros</text>
</g>
<!-- Entregable&#45;&gt;Activo -->
<g id="edge19" class="edge"><title>Entregable&#45;&gt;Activo</title>
<path fill="none" stroke="#ec52e7" d="M95.8688,-70.2018C84.4755,-60.7729 71.0228,-49.6396 59.5767,-40.1669"/>
<ellipse fill="none" stroke="#ec52e7" cx="99.0407" cy="-72.8268" rx="4.00002" ry="4.00002"/>
<polygon fill="#ec52e7" stroke="#ec52e7" points="59.3588,-39.9866 54.5239,-30.1441 55.5069,-36.7988 51.6549,-33.6109 51.6549,-33.6109 51.6549,-33.6109 55.5069,-36.7988 48.7858,-37.0777 59.3588,-39.9866 59.3588,-39.9866"/>
</g>
<!-- Proyecto&#45;&gt;Documento -->
<g id="edge27" class="edge"><title>Proyecto&#45;&gt;Documento</title>
<path fill="none" stroke="#431cb4" d="M575.926,-142.928C583.769,-134.24 592.768,-124.272 600.653,-115.539"/>
<ellipse fill="none" stroke="#431cb4" cx="573.106" cy="-146.052" rx="4.00002" ry="4.00002"/>
<ellipse fill="#431cb4" stroke="#431cb4" cx="603.484" cy="-112.403" rx="4.00002" ry="4.00002"/>
</g>
<!-- Proyecto&#45;&gt;Material -->
<g id="edge23" class="edge"><title>Proyecto&#45;&gt;Material</title>
<path fill="none" stroke="#e303c4" d="M593.069,-149.835C622.73,-137.701 664.163,-120.752 694.053,-108.524"/>
<ellipse fill="none" stroke="#e303c4" cx="589.161" cy="-151.434" rx="4.00001" ry="4.00001"/>
<polygon fill="#e303c4" stroke="#e303c4" points="694.067,-108.518 705.026,-108.897 698.695,-106.625 703.322,-104.732 703.322,-104.732 703.322,-104.732 698.695,-106.625 701.619,-100.567 694.067,-108.518 694.067,-108.518"/>
</g>
<!-- Proyecto&#45;&gt;Alianza -->
<g id="edge24" class="edge"><title>Proyecto&#45;&gt;Alianza</title>
<path fill="none" stroke="#a753a6" d="M535.772,-142.934C530.074,-137.555 523.615,-132.159 517,-128 514.505,-126.431 487.97,-116.385 464.036,-107.456"/>
<ellipse fill="none" stroke="#a753a6" cx="538.778" cy="-145.897" rx="4.00002" ry="4.00002"/>
<polygon fill="#a753a6" stroke="#a753a6" points="463.732,-107.343 455.931,-99.6364 459.047,-105.598 454.361,-103.854 454.361,-103.854 454.361,-103.854 459.047,-105.598 452.791,-108.071 463.732,-107.343 463.732,-107.343"/>
</g>
<!-- Proyecto&#45;&gt;Rol -->
<g id="edge26" class="edge"><title>Proyecto&#45;&gt;Rol</title>
<path fill="none" stroke="#3083b5" d="M528.21,-145.947C517.344,-139.313 504.504,-132.429 492,-128 443.649,-110.875 427.02,-125.104 378,-110 376.068,-109.405 374.107,-108.723 372.15,-107.984"/>
<ellipse fill="none" stroke="#3083b5" cx="531.656" cy="-148.114" rx="4.00002" ry="4.00002"/>
<polygon fill="#3083b5" stroke="#3083b5" points="371.75,-107.815 364.288,-99.7791 367.144,-105.87 362.538,-103.925 362.538,-103.925 362.538,-103.925 367.144,-105.87 360.787,-108.07 371.75,-107.815 371.75,-107.815"/>
</g>
<!-- Proyecto&#45;&gt;Riesgo -->
<g id="edge22" class="edge"><title>Proyecto&#45;&gt;Riesgo</title>
<path fill="none" stroke="#08d502" d="M547.826,-140.486C546.098,-136.23 544.142,-131.917 542,-128 539.957,-124.264 537.557,-120.48 535.055,-116.85"/>
<ellipse fill="none" stroke="#08d502" cx="549.256" cy="-144.248" rx="4.00001" ry="4.00001"/>
<polygon fill="#08d502" stroke="#08d502" points="535.043,-116.833 532.789,-106.101 532.098,-112.792 529.152,-108.752 529.152,-108.752 529.152,-108.752 532.098,-112.792 525.516,-111.402 535.043,-116.833 535.043,-116.833"/>
</g>
<!-- Proyecto&#45;&gt;Entregable -->
<g id="edge25" class="edge"><title>Proyecto&#45;&gt;Entregable</title>
<path fill="none" stroke="#cd3248" d="M510.369,-156.002C496.462,-153.335 481.119,-150.47 467,-148 363.994,-129.98 243.289,-111.358 175.115,-101.069"/>
<ellipse fill="none" stroke="#cd3248" cx="514.444" cy="-156.787" rx="4.00001" ry="4.00001"/>
<polygon fill="#cd3248" stroke="#cd3248" points="174.929,-101.041 165.711,-95.1022 169.985,-100.297 165.041,-99.5521 165.041,-99.5521 165.041,-99.5521 169.985,-100.297 164.37,-104.002 174.929,-101.041 174.929,-101.041"/>
</g>
</g>
</svg>
