<?xml version="1.0" encoding="UTF-8" standalone="no"?>
<!DOCTYPE svg PUBLIC "-//W3C//DTD SVG 1.1//EN"
 "http://www.w3.org/Graphics/SVG/1.1/DTD/svg11.dtd">
<!-- Generated by graphviz version 2.36.0 (20140111.2315)
 -->
<!-- Title: models_diagram Pages: 1 -->
<svg width="970pt" height="490pt"
 viewBox="0.00 0.00 970.00 490.00" xmlns="http://www.w3.org/2000/svg" xmlns:xlink="http://www.w3.org/1999/xlink">
<g id="graph0" class="graph" transform="scale(1 1) rotate(0) translate(4 486)">
<title>models_diagram</title>
<polygon fill="none" stroke="none" points="-4,4 -4,-486 966,-486 966,4 -4,4"/>
<!-- _diagram_info -->
<g id="node1" class="node"><title>_diagram_info</title>
<text text-anchor="start" x="93" y="-467.6" font-family="Times,serif" font-size="13.00">Models diagram</text>
<text text-anchor="start" x="93" y="-453.6" font-family="Times,serif" font-size="13.00">Date: Dec 06 2015 &#45; 20:30</text>
<text text-anchor="start" x="93" y="-439.6" font-family="Times,serif" font-size="13.00">Migration version: 20151204221644</text>
<text text-anchor="start" x="93" y="-425.6" font-family="Times,serif" font-size="13.00">Generated by RailRoady 1.4.1</text>
<text text-anchor="start" x="93" y="-411.6" font-family="Times,serif" font-size="13.00">http://railroady.prestonlee.com</text>
</g>
<!-- Direccion -->
<g id="node2" class="node"><title>Direccion</title>
<ellipse fill="none" stroke="black" cx="123" cy="-348" rx="45.244" ry="18"/>
<text text-anchor="middle" x="123" y="-344.3" font-family="Times,serif" font-size="14.00">Direccion</text>
</g>
<!-- Portafolio -->
<g id="node3" class="node"><title>Portafolio</title>
<ellipse fill="none" stroke="black" cx="415" cy="-240" rx="46.2191" ry="18"/>
<text text-anchor="middle" x="415" y="-236.3" font-family="Times,serif" font-size="14.00">Portafolio</text>
</g>
<!-- Hoja -->
<g id="node11" class="node"><title>Hoja</title>
<ellipse fill="none" stroke="black" cx="364" cy="-166" rx="27.4223" ry="18"/>
<text text-anchor="middle" x="364" y="-162.3" font-family="Times,serif" font-size="14.00">Hoja</text>
</g>
<!-- Portafolio&#45;&gt;Hoja -->
<g id="edge1" class="edge"><title>Portafolio&#45;&gt;Hoja</title>
<path fill="none" stroke="#d825c1" d="M398.36,-215.509C392.751,-207.589 386.488,-198.747 380.861,-190.804"/>
<ellipse fill="none" stroke="#d825c1" cx="400.859" cy="-219.037" rx="4.00002" ry="4.00002"/>
<polygon fill="#d825c1" stroke="#d825c1" points="380.846,-190.783 378.738,-180.022 377.956,-186.703 375.066,-182.623 375.066,-182.623 375.066,-182.623 377.956,-186.703 371.394,-185.224 380.846,-190.783 380.846,-190.783"/>
</g>
<!-- Bitacora -->
<g id="node4" class="node"><title>Bitacora</title>
<ellipse fill="none" stroke="black" cx="491" cy="-92" rx="39.9464" ry="18"/>
<text text-anchor="middle" x="491" y="-88.3" font-family="Times,serif" font-size="14.00">Bitacora</text>
</g>
<!-- Documento -->
<g id="node5" class="node"><title>Documento</title>
<ellipse fill="none" stroke="black" cx="140" cy="-18" rx="51.4931" ry="18"/>
<text text-anchor="middle" x="140" y="-14.3" font-family="Times,serif" font-size="14.00">Documento</text>
</g>
<!-- Juridica -->
<g id="node6" class="node"><title>Juridica</title>
<ellipse fill="none" stroke="black" cx="225" cy="-348" rx="38.0212" ry="18"/>
<text text-anchor="middle" x="225" y="-344.3" font-family="Times,serif" font-size="14.00">Juridica</text>
</g>
<!-- Telefono -->
<g id="node7" class="node"><title>Telefono</title>
<ellipse fill="none" stroke="black" cx="324" cy="-348" rx="42.3701" ry="18"/>
<text text-anchor="middle" x="324" y="-344.3" font-family="Times,serif" font-size="14.00">Telefono</text>
</g>
<!-- Persona -->
<g id="node8" class="node"><title>Persona</title>
<ellipse fill="none" stroke="black" cx="355" cy="-443" rx="38.0212" ry="18"/>
<text text-anchor="middle" x="355" y="-439.3" font-family="Times,serif" font-size="14.00">Persona</text>
</g>
<!-- Persona&#45;&gt;Direccion -->
<g id="edge4" class="edge"><title>Persona&#45;&gt;Direccion</title>
<path fill="none" stroke="#a0ba8f" d="M332.638,-421.389C324.945,-415.118 315.995,-408.661 307,-404 253.932,-376.503 235.22,-383.27 178,-366 174.493,-364.941 170.862,-363.837 167.216,-362.723"/>
<ellipse fill="none" stroke="#a0ba8f" cx="335.72" cy="-423.989" rx="4.00002" ry="4.00002"/>
<polygon fill="#a0ba8f" stroke="#a0ba8f" points="167.159,-362.705 158.919,-355.469 162.379,-361.238 157.599,-359.771 157.599,-359.771 157.599,-359.771 162.379,-361.238 156.279,-364.073 167.159,-362.705 167.159,-362.705"/>
</g>
<!-- Persona&#45;&gt;Juridica -->
<g id="edge2" class="edge"><title>Persona&#45;&gt;Juridica</title>
<path fill="none" stroke="#a74f68" d="M330.081,-421.665C322.738,-415.84 314.626,-409.563 307,-404 289.706,-391.385 269.773,-377.99 253.89,-367.578"/>
<ellipse fill="none" stroke="#a74f68" cx="333.448" cy="-424.357" rx="4.00002" ry="4.00002"/>
<ellipse fill="#a74f68" stroke="#a74f68" cx="250.251" cy="-365.203" rx="4.00002" ry="4.00002"/>
</g>
<!-- Persona&#45;&gt;Telefono -->
<g id="edge5" class="edge"><title>Persona&#45;&gt;Telefono</title>
<path fill="none" stroke="#46e7e2" d="M346.651,-416.952C342.401,-404.202 337.232,-388.695 332.905,-375.716"/>
<ellipse fill="none" stroke="#46e7e2" cx="348.049" cy="-421.148" rx="4.00001" ry="4.00001"/>
<polygon fill="#46e7e2" stroke="#46e7e2" points="332.812,-375.436 333.919,-364.526 331.231,-370.693 329.65,-365.949 329.65,-365.949 329.65,-365.949 331.231,-370.693 325.381,-367.373 332.812,-375.436 332.812,-375.436"/>
</g>
<!-- Fisica -->
<g id="node12" class="node"><title>Fisica</title>
<ellipse fill="none" stroke="black" cx="487" cy="-294" rx="31.2735" ry="18"/>
<text text-anchor="middle" x="487" y="-290.3" font-family="Times,serif" font-size="14.00">Fisica</text>
</g>
<!-- Persona&#45;&gt;Fisica -->
<g id="edge3" class="edge"><title>Persona&#45;&gt;Fisica</title>
<path fill="none" stroke="#a7ded8" d="M389.677,-426.24C414.343,-413.349 446.45,-392.87 466,-366 475.736,-352.619 480.99,-334.742 483.809,-320.274"/>
<ellipse fill="none" stroke="#a7ded8" cx="385.849" cy="-428.184" rx="4.00002" ry="4.00002"/>
<ellipse fill="#a7ded8" stroke="#a7ded8" cx="484.521" cy="-316.151" rx="4.00001" ry="4.00001"/>
</g>
<!-- User -->
<g id="node17" class="node"><title>User</title>
<ellipse fill="none" stroke="black" cx="540" cy="-348" rx="26.949" ry="18"/>
<text text-anchor="middle" x="540" y="-344.3" font-family="Times,serif" font-size="14.00">User</text>
</g>
<!-- Persona&#45;&gt;User -->
<g id="edge7" class="edge"><title>Persona&#45;&gt;User</title>
<path fill="none" stroke="#d5a54c" d="M394.902,-430.797C424.863,-421.386 466.198,-406.225 499,-386 506.468,-381.396 513.835,-375.356 520.219,-369.495"/>
<ellipse fill="none" stroke="#d5a54c" cx="390.979" cy="-432.005" rx="4.00001" ry="4.00001"/>
<ellipse fill="#d5a54c" stroke="#d5a54c" cx="523.348" cy="-366.513" rx="4.00002" ry="4.00002"/>
</g>
<!-- Cliente -->
<g id="node19" class="node"><title>Cliente</title>
<ellipse fill="none" stroke="black" cx="421" cy="-348" rx="36.096" ry="18"/>
<text text-anchor="middle" x="421" y="-344.3" font-family="Times,serif" font-size="14.00">Cliente</text>
</g>
<!-- Persona&#45;&gt;Cliente -->
<g id="edge6" class="edge"><title>Persona&#45;&gt;Cliente</title>
<path fill="none" stroke="#b7f57f" d="M371.302,-419.029C381.469,-404.703 394.506,-386.332 404.677,-372.001"/>
<ellipse fill="none" stroke="#b7f57f" cx="368.811" cy="-422.539" rx="4.00002" ry="4.00002"/>
<ellipse fill="#b7f57f" stroke="#b7f57f" cx="407.099" cy="-368.588" rx="4.00002" ry="4.00002"/>
</g>
<!-- Certificacion -->
<g id="node9" class="node"><title>Certificacion</title>
<ellipse fill="none" stroke="black" cx="802" cy="-92" rx="56.3173" ry="18"/>
<text text-anchor="middle" x="802" y="-88.3" font-family="Times,serif" font-size="14.00">Certificacion</text>
</g>
<!-- Material -->
<g id="node10" class="node"><title>Material</title>
<ellipse fill="none" stroke="black" cx="251" cy="-18" rx="40.4202" ry="18"/>
<text text-anchor="middle" x="251" y="-14.3" font-family="Times,serif" font-size="14.00">Material</text>
</g>
<!-- Proyecto -->
<g id="node21" class="node"><title>Proyecto</title>
<ellipse fill="none" stroke="black" cx="350" cy="-92" rx="42.3701" ry="18"/>
<text text-anchor="middle" x="350" y="-88.3" font-family="Times,serif" font-size="14.00">Proyecto</text>
</g>
<!-- Hoja&#45;&gt;Proyecto -->
<g id="edge8" class="edge"><title>Hoja&#45;&gt;Proyecto</title>
<path fill="none" stroke="#068f28" d="M359.099,-139.792C357.773,-132.974 356.336,-125.588 355.005,-118.741"/>
<ellipse fill="none" stroke="#068f28" cx="359.919" cy="-144.011" rx="4.00001" ry="4.00001"/>
<ellipse fill="#068f28" stroke="#068f28" cx="354.155" cy="-114.367" rx="4.00001" ry="4.00001"/>
</g>
<!-- Recurso -->
<g id="node14" class="node"><title>Recurso</title>
<ellipse fill="none" stroke="black" cx="584" cy="-166" rx="39.4691" ry="18"/>
<text text-anchor="middle" x="584" y="-162.3" font-family="Times,serif" font-size="14.00">Recurso</text>
</g>
<!-- Fisica&#45;&gt;Recurso -->
<g id="edge9" class="edge"><title>Fisica&#45;&gt;Recurso</title>
<path fill="none" stroke="#3e0c14" d="M504.203,-270.654C521.757,-247.851 548.861,-212.644 566.517,-189.71"/>
<ellipse fill="none" stroke="#3e0c14" cx="501.529" cy="-274.127" rx="4.00002" ry="4.00002"/>
<ellipse fill="#3e0c14" stroke="#3e0c14" cx="569.011" cy="-186.47" rx="4.00002" ry="4.00002"/>
</g>
<!-- Alianza -->
<g id="node13" class="node"><title>Alianza</title>
<ellipse fill="none" stroke="black" cx="348" cy="-18" rx="38.0212" ry="18"/>
<text text-anchor="middle" x="348" y="-14.3" font-family="Times,serif" font-size="14.00">Alianza</text>
</g>
<!-- Recurso&#45;&gt;Bitacora -->
<g id="edge16" class="edge"><title>Recurso&#45;&gt;Bitacora</title>
<path fill="none" stroke="#81f09a" d="M558.052,-144.911C545.734,-135.374 531.006,-123.972 518.495,-114.287"/>
<ellipse fill="none" stroke="#81f09a" cx="561.567" cy="-147.633" rx="4.00002" ry="4.00002"/>
<polygon fill="#81f09a" stroke="#81f09a" points="518.152,-114.021 513,-104.341 514.199,-110.96 510.245,-107.899 510.245,-107.899 510.245,-107.899 514.199,-110.96 507.49,-111.458 518.152,-114.021 518.152,-114.021"/>
</g>
<!-- Recurso&#45;&gt;Certificacion -->
<g id="edge10" class="edge"><title>Recurso&#45;&gt;Certificacion</title>
<path fill="none" stroke="#d09838" d="M622.924,-152.144C659.772,-139.974 715.168,-121.678 754.579,-108.662"/>
<ellipse fill="none" stroke="#d09838" cx="619.032" cy="-153.43" rx="4.00001" ry="4.00001"/>
<polygon fill="#d09838" stroke="#d09838" points="754.738,-108.61 765.645,-109.746 759.486,-107.041 764.233,-105.473 764.233,-105.473 764.233,-105.473 759.486,-107.041 762.822,-101.2 754.738,-108.61 754.738,-108.61"/>
</g>
<!-- Rol -->
<g id="node15" class="node"><title>Rol</title>
<ellipse fill="none" stroke="black" cx="431" cy="-18" rx="27" ry="18"/>
<text text-anchor="middle" x="431" y="-14.3" font-family="Times,serif" font-size="14.00">Rol</text>
</g>
<!-- Recurso&#45;&gt;Rol -->
<g id="edge12" class="edge"><title>Recurso&#45;&gt;Rol</title>
<path fill="none" stroke="#7ba399" d="M537.975,-159.561C505.925,-153.225 464.96,-139.536 442,-110 428.073,-92.0845 426.248,-65.8938 427.364,-46.2049"/>
<ellipse fill="none" stroke="#7ba399" cx="541.98" cy="-160.296" rx="4.00001" ry="4.00001"/>
<polygon fill="#7ba399" stroke="#7ba399" points="427.382,-45.9935 432.713,-36.4104 427.806,-41.0115 428.229,-36.0294 428.229,-36.0294 428.229,-36.0294 427.806,-41.0115 423.745,-35.6485 427.382,-45.9935 427.382,-45.9935"/>
</g>
<!-- Activo -->
<g id="node16" class="node"><title>Activo</title>
<ellipse fill="none" stroke="black" cx="584" cy="-92" rx="34.1708" ry="18"/>
<text text-anchor="middle" x="584" y="-88.3" font-family="Times,serif" font-size="14.00">Activo</text>
</g>
<!-- Recurso&#45;&gt;Activo -->
<g id="edge14" class="edge"><title>Recurso&#45;&gt;Activo</title>
<path fill="none" stroke="#d91fe0" d="M584,-139.792C584,-133.58 584,-126.896 584,-120.579"/>
<ellipse fill="none" stroke="#d91fe0" cx="584" cy="-143.937" rx="4" ry="4"/>
<polygon fill="#d91fe0" stroke="#d91fe0" points="584,-120.441 588.5,-110.441 584,-115.441 584,-110.441 584,-110.441 584,-110.441 584,-115.441 579.5,-110.441 584,-120.441 584,-120.441"/>
</g>
<!-- Habilidad -->
<g id="node20" class="node"><title>Habilidad</title>
<ellipse fill="none" stroke="black" cx="682" cy="-92" rx="45.244" ry="18"/>
<text text-anchor="middle" x="682" y="-88.3" font-family="Times,serif" font-size="14.00">Habilidad</text>
</g>
<!-- Recurso&#45;&gt;Habilidad -->
<g id="edge11" class="edge"><title>Recurso&#45;&gt;Habilidad</title>
<path fill="none" stroke="#89cef8" d="M610.387,-145.614C623.464,-136.006 639.295,-124.375 652.743,-114.495"/>
<ellipse fill="none" stroke="#89cef8" cx="607.055" cy="-148.061" rx="4.00002" ry="4.00002"/>
<polygon fill="#89cef8" stroke="#89cef8" points="653.124,-114.215 663.847,-111.921 657.154,-111.255 661.183,-108.294 661.183,-108.294 661.183,-108.294 657.154,-111.255 658.519,-104.668 653.124,-114.215 653.124,-114.215"/>
</g>
<!-- Recurso&#45;&gt;Proyecto -->
<g id="edge13" class="edge"><title>Recurso&#45;&gt;Proyecto</title>
<path fill="none" stroke="#adebfd" d="M535.45,-160.082C499.557,-155.313 450.005,-146.319 409,-130 398.444,-125.799 387.688,-119.697 378.301,-113.655"/>
<polygon fill="#adebfd" stroke="#adebfd" points="535.738,-160.119 545.094,-165.838 540.698,-160.746 545.658,-161.374 545.658,-161.374 545.658,-161.374 540.698,-160.746 546.223,-156.909 535.738,-160.119 535.738,-160.119"/>
<polygon fill="#adebfd" stroke="#adebfd" points="378.082,-113.508 372.275,-104.206 373.927,-110.727 369.772,-107.945 369.772,-107.945 369.772,-107.945 373.927,-110.727 367.268,-111.685 378.082,-113.508 378.082,-113.508"/>
</g>
<!-- Entregable -->
<g id="node22" class="node"><title>Entregable</title>
<ellipse fill="none" stroke="black" cx="887" cy="-18" rx="48.6179" ry="18"/>
<text text-anchor="middle" x="887" y="-14.3" font-family="Times,serif" font-size="14.00">Entregable</text>
</g>
<!-- Recurso&#45;&gt;Entregable -->
<g id="edge15" class="edge"><title>Recurso&#45;&gt;Entregable</title>
<path fill="none" stroke="#8303c7" d="M633.043,-161.848C705.051,-156.197 834.395,-141.819 867,-110 883.78,-93.6242 887.97,-66.6188 888.447,-46.2709"/>
<polygon fill="#8303c7" stroke="#8303c7" points="632.824,-161.865 622.513,-158.133 627.838,-162.242 622.853,-162.62 622.853,-162.62 622.853,-162.62 627.838,-162.242 623.193,-167.107 632.824,-161.865 632.824,-161.865"/>
<polygon fill="#8303c7" stroke="#8303c7" points="888.446,-46.0452 892.897,-36.0229 888.422,-41.0453 888.397,-36.0453 888.397,-36.0453 888.397,-36.0453 888.422,-41.0453 883.897,-36.0677 888.446,-46.0452 888.446,-46.0452"/>
</g>
<!-- Recurso&#45;&gt;Entregable -->
<g id="edge17" class="edge"><title>Recurso&#45;&gt;Entregable</title>
<path fill="none" stroke="#286cda" d="M633.42,-163.609C711.614,-160.241 858.274,-148.784 890,-110 906.116,-90.298 907.118,-78.9341 902,-54 901.414,-51.1466 900.586,-48.2385 899.616,-45.3792"/>
<polygon fill="#286cda" stroke="#286cda" points="633.31,-163.614 623.137,-159.519 628.314,-163.815 623.318,-164.016 623.318,-164.016 623.318,-164.016 628.314,-163.815 623.499,-168.512 633.31,-163.614 633.31,-163.614"/>
<polygon fill="#286cda" stroke="#286cda" points="899.584,-45.299 900.103,-34.3454 897.75,-40.6473 895.917,-35.9956 895.917,-35.9956 895.917,-35.9956 897.75,-40.6473 891.73,-37.6458 899.584,-45.299 899.584,-45.299"/>
<text text-anchor="middle" x="933" y="-88.3" font-family="Times,serif" font-size="14.00">reportados</text>
</g>
<!-- Riesgo -->
<g id="node18" class="node"><title>Riesgo</title>
<ellipse fill="none" stroke="black" cx="35" cy="-18" rx="35.1455" ry="18"/>
<text text-anchor="middle" x="35" y="-14.3" font-family="Times,serif" font-size="14.00">Riesgo</text>
</g>
<!-- Cliente&#45;&gt;Portafolio -->
<g id="edge18" class="edge"><title>Cliente&#45;&gt;Portafolio</title>
<path fill="none" stroke="#80dd40" d="M419.573,-321.795C418.63,-305.123 417.396,-283.335 416.448,-266.586"/>
<ellipse fill="none" stroke="#80dd40" cx="419.81" cy="-325.976" rx="4" ry="4"/>
<ellipse fill="#80dd40" stroke="#80dd40" cx="416.208" cy="-262.334" rx="4" ry="4"/>
</g>
<!-- Proyecto&#45;&gt;Documento -->
<g id="edge24" class="edge"><title>Proyecto&#45;&gt;Documento</title>
<path fill="none" stroke="#e993c8" d="M310.119,-77.3267C273.807,-64.8767 220.326,-46.5402 183.054,-33.7613"/>
<ellipse fill="none" stroke="#e993c8" cx="314.322" cy="-78.7674" rx="4.00001" ry="4.00001"/>
<ellipse fill="#e993c8" stroke="#e993c8" cx="179.142" cy="-32.4202" rx="4.00001" ry="4.00001"/>
</g>
<!-- Proyecto&#45;&gt;Material -->
<g id="edge20" class="edge"><title>Proyecto&#45;&gt;Material</title>
<path fill="none" stroke="#39b394" d="M322.767,-71.1941C309.244,-61.3594 292.921,-49.4878 279.26,-39.553"/>
<ellipse fill="none" stroke="#39b394" cx="326.252" cy="-73.7288" rx="4.00002" ry="4.00002"/>
<polygon fill="#39b394" stroke="#39b394" points="279.235,-39.5347 273.795,-30.0137 275.192,-36.5939 271.148,-33.653 271.148,-33.653 271.148,-33.653 275.192,-36.5939 268.501,-37.2923 279.235,-39.5347 279.235,-39.5347"/>
</g>
<!-- Proyecto&#45;&gt;Alianza -->
<g id="edge21" class="edge"><title>Proyecto&#45;&gt;Alianza</title>
<path fill="none" stroke="#87b5ca" d="M349.3,-65.7923C349.127,-59.5805 348.942,-52.8963 348.766,-46.5786"/>
<ellipse fill="none" stroke="#87b5ca" cx="349.415" cy="-69.9385" rx="4" ry="4"/>
<polygon fill="#87b5ca" stroke="#87b5ca" points="348.762,-46.4368 352.983,-36.3157 348.623,-41.4387 348.484,-36.4407 348.484,-36.4407 348.484,-36.4407 348.623,-41.4387 343.986,-36.5657 348.762,-46.4368 348.762,-46.4368"/>
</g>
<!-- Proyecto&#45;&gt;Rol -->
<g id="edge23" class="edge"><title>Proyecto&#45;&gt;Rol</title>
<path fill="none" stroke="#5dcb4f" d="M370.913,-69.2615C376.064,-64.1402 381.642,-58.7826 387,-54 392.808,-48.8165 399.267,-43.466 405.408,-38.5555"/>
<ellipse fill="none" stroke="#5dcb4f" cx="367.92" cy="-72.2772" rx="4.00002" ry="4.00002"/>
<polygon fill="#5dcb4f" stroke="#5dcb4f" points="405.637,-38.375 416.278,-35.7248 409.566,-35.2821 413.494,-32.1891 413.494,-32.1891 413.494,-32.1891 409.566,-35.2821 410.711,-28.6534 405.637,-38.375 405.637,-38.375"/>
</g>
<!-- Proyecto&#45;&gt;Riesgo -->
<g id="edge19" class="edge"><title>Proyecto&#45;&gt;Riesgo</title>
<path fill="none" stroke="#845740" d="M302.811,-83.9018C248.277,-75.1304 156.138,-58.5547 79,-36 76.3644,-35.2294 73.6644,-34.369 70.962,-33.4555"/>
<ellipse fill="none" stroke="#845740" cx="306.955" cy="-84.5616" rx="4.00001" ry="4.00001"/>
<polygon fill="#845740" stroke="#845740" points="70.6891,-33.3577 62.7959,-25.7453 65.9828,-31.6694 61.2764,-29.981 61.2764,-29.981 61.2764,-29.981 65.9828,-31.6694 59.7569,-34.2167 70.6891,-33.3577 70.6891,-33.3577"/>
</g>
<!-- Proyecto&#45;&gt;Entregable -->
<g id="edge22" class="edge"><title>Proyecto&#45;&gt;Entregable</title>
<path fill="none" stroke="#eb793c" d="M395.534,-82.0295C410.323,-79.2651 426.83,-76.337 442,-74 581.405,-52.525 746.399,-33.8966 830.923,-24.8434"/>
<ellipse fill="none" stroke="#eb793c" cx="391.444" cy="-82.8015" rx="4.00001" ry="4.00001"/>
<polygon fill="#eb793c" stroke="#eb793c" points="831.128,-24.8216 841.549,-28.2356 836.1,-24.2913 841.072,-23.761 841.072,-23.761 841.072,-23.761 836.1,-24.2913 840.594,-19.2864 831.128,-24.8216 831.128,-24.8216"/>
</g>
</g>
</svg>
